<?xml version="1.0" encoding="utf-8"?>
<!-- Generator: Adobe Illustrator 27.5.0, SVG Export Plug-In . SVG Version: 6.00 Build 0)  -->
<svg version="1.1" id="Capa_1" xmlns="http://www.w3.org/2000/svg" xmlns:xlink="http://www.w3.org/1999/xlink" x="0px" y="0px"
	 viewBox="0 0 2334 1929" style="enable-background:new 0 0 2334 1929;" xml:space="preserve">
<g>
	<rect x="0" style="fill:#FFFFFF;" width="2333.371" height="1928.541"/>
	<path style="fill:#A2DEF9;" d="M2218.254,863.064L2218.254,863.064c0-51.688-47.611-93.977-105.805-93.977h-12.561
		c23.471-22.316,37.901-52.212,37.901-84.974v-0.003c0-42.028-23.742-79.35-59.883-101.974c44.001-11.392,76.4-47.602,76.4-90.232
		c0-51.688-47.611-93.977-105.8-93.977h-5.598c21.156-21.849,34.011-50.198,34.011-81.103l0,0
		c0-68.597-63.189-124.722-140.419-124.722H332.922c-77.23,0-140.419,56.126-140.419,124.722l0,0
		c0,55.625,41.554,103.042,98.448,118.988c-13.216,15.685-21.057,35.114-21.057,56.092c0,26.422,12.457,50.369,32.394,67.487
		h-21.707c-77.225,0-140.419,56.123-140.419,124.72v0.003c0,37.846,19.259,71.872,49.476,94.793
		c-34.828,15.426-58.911,47.407-58.911,84.157l0,0c0,48.847,42.536,89.281,96.328,93.579c-16.261,20.35-25.871,45.149-25.871,71.86
		l0,0c0,45.51,27.826,85.507,69.104,107.295h-14.752c-77.235,0-140.419,56.121-140.419,124.718
		c0,57.449,44.324,106.127,104.093,120.439c-10.408,16.337-16.422,35.131-16.422,55.144l0,0
		c0,62.079,57.188,112.873,127.075,112.873h13.353c-37.351,19.714-62.539,55.908-62.539,97.096
		c0,62.079,57.183,112.873,127.07,112.873h1595.761c69.892,0,127.07-50.794,127.07-112.873c0-62.079-57.178-112.868-127.07-112.868
		h-13.349c37.351-19.714,62.53-55.913,62.53-97.101l0,0c0-23.073-7.988-44.523-21.507-62.449c3.064-1.266,6.081-2.623,9.022-4.079
		c3.349-0.646,6.641-1.437,9.857-2.367h-5.237c40.623-21.915,67.918-61.604,67.918-106.687c0-45.51-27.835-85.507-69.104-107.29
		h14.748c77.23,0,140.424-56.126,140.424-124.723l0,0c0-31.781-13.586-60.869-35.823-82.955
		C2195.845,929.552,2218.254,898.522,2218.254,863.064z"/>
	<g>
		<g>
			<g>
				<g>
					<path style="fill:#49A9DF;" d="M715.969,490.462c-34.007,9.234-32.451,1.433-57.629,2.896
						c-30.179,1.753-40.984,8.977-74.502,31.381c-8.956,5.989-30.207,14.224-38.176,26.858c-7.984,12.67,13.718,6.672,10.516,15.379
						c-7.395,20.099-27.859,14.741-39.438,26.607c-18.623,19.09,11.086,10.6,20.321,6.838c-0.845,2.631-1.684,4.934-2.97,7.725
						c-20.032,10.751-36.985,18.517-37.659,36.668c-0.384,10.443,9.146,28.096,27.309,13.441
						c0.602,25.411-39.604,24.078-50.258,44.556c15.066-4.938,47.967-29.766,63.422-39.411
						c23.153-14.456,35.159-29.74,52.378-49.774c3.121,2.96,1.821,17.497,7.011,18.151c13.438,1.696,21.28-17.923,31.734-23.635
						c28.191-15.395,20.047,6.655,37.873,13.118c7.457,2.701,19.411-4.129,26.393-1.791c10.863,3.639,8.273,9.205,15.179,17.492
						c8.444,10.123,29.647,20.663,17.769,38.56c41.995-0.062,7.049,30.468,3.107,49.831c-2.538,12.49,2.168,27.956,0.252,41.146
						c-2.619,18.016-5.246,22.347,2.182,38.309c10.858,23.333,23.76,40.095,31.364,65.917c7.239,24.557,20.34,55.623,41.577,72.316
						c4.938-25.995-22.238-40.51-16.996-69.349c10.237,2.604,21.896,37.534,27.404,48.363c7.718,15.17,11.598,40.017,28.201,53.839
						c18.376,15.312,44.76,9.345,64.65,19.126c10.308,5.066,14.273,15.502,23.922,19.733c10.692,4.691,28.12,0.1,36.924,7.86
						c18.087,15.948,3.192,39.068,39.395,44.239c26.379,3.771,50.192-17.618,35.79,20.786c-7.609,20.288-31.099,27.228-34.884,46.33
						c-3.577,18.045,5.92,49.632,13.51,63.175c13.514,24.126,34.562,58.398,61.78,59.826c9.193,20.886-0.954,40.885-3.131,59.807
						c-2.39,20.824,5.91,46.999-1.081,66.249c-8.719,24.016-18.064,25.539-10.379,51.928c2.827,9.71,9.003,7.191,8.282,18.875
						c-0.46,7.537-12.276,15.862-11.963,27.033c0.541,18.951,28.945,60.807,32.721,41.677c5.332-27.005,13.718-49.371,16.66-58.796
						c2.191-7.035,2.362-26.554,7.452-36.639c2.035-4.032,13.975-16.176,17.466-18.851c19.861-15.255,23.561-15.245,38.086-36.654
						c1.613-2.39,12.599-12.485,12.779-15.302c28.765-18.429,44.476-63.687,69.474-83.126c25.805-20.056,30.245-8.88,41.174-41.767
						c7.163-21.574,8.026-43.489,27.664-59.057c14.961-11.854,53.735-20.967,31.004-46.544c-11.821-13.306-40.169-0.271-59.66-9.42
						c-7.917-3.719-11.778-12.969-20.43-15.929c-9.762-3.344-28.528,3.102-36.933-1.243c-12.021-6.224-6.129-14.193-11.522-22.845
						c-11.565-18.552,3.581-9.682-18.268-19.918c-12.532-5.873-18.215,2.007-30.705-8.88c-7.632-6.656-5.783-23.756-16.109-29.609
						c-14.866-8.43-51.187,2.082-67.866,4.335c-14.848,2.002-19.596-0.18-31.915,6.703c-11.048,6.167,2.476,16.939-17.086,20.298
						c-4.526,0.778-17.238-12.02-25.824-12.11c-12.143-0.119-22.537,4.857-31.507,11.18c-9.591-16.911,8.709-38.171-0.806-51.083
						c-16.095-21.839-28.865,5.033-26.867-29.965c1.062-18.514,20.383-33.139-13.14-18.13
						c-11.641,5.213-23.585,37.872-46.188,17.769c-29.908-26.602,10.982-74.061,35.145-85.735
						c15.255-7.372,43.328-16.783,60.49-7.78c16.114,8.455,10.412,35.468,35.164,30.468c0.991-17.921-5.754-46.532,1.238-62.99
						c9.601-22.579,34.135-17.101,45.889-32.65c6.812-9.013,0.645-22.069,5.512-29.749c7.091-11.202,10.938-7.047,19.226-14.62
						c8.714-7.957,12.252-2.346,19.041-14.47c4.027-7.187,2.898-23.127,3.235-31.424c18.287-5.602,38.973-6.473,41.406,14.338
						c27.276-8.498,10.36-40.195,1.432-56.126c18.908-26.279,46.273-7.139,43.869,20.283c18.614,6.855,55.267,11.034,46.786-16.327
						c-54.874-21.602-4.824-27.055-24.984-62.752c-5.972-10.564-24.311-15.082-31.341-25.881
						c-7.452-11.441-6.693-33.596-11.394-46.944c-14.065,1.217-19.358,14.043-36.597,10.557
						c-2.884-23.713-35.235-48.126-56.96-25.295c-21.697,22.795,4.578,57.497,9.378,78.774c-28.532,1.224-22.84,31.67-48.498,24.897
						c-0.707-12.715-0.233-25.855-0.916-38.387c-37.536-1.793-77.42-6.458-65.433-51.551c6.437-24.204,16.384-14.416,36.231-22.494
						c18.903-7.692,16.36-16.662,30.311-26.587c15.739-11.197,27.603,0.081,31.227-24.157c2.671-17.857-3.249-22.522-21.104-24.427
						c-17.608-1.881-9.743,16.297-30.634-1.688c-12.091-10.415-4.829-24.861-26.716-27.148c-6.659,11.894-4.411,27.71-2.457,40.491
						c-18.201,5.915-75.66-14-83.354-1.627c-9.587,35.894-32.427,10.4-48.432,4.616c-18.946-6.843-39.675-2.868-60.025-1.859
						c-21.692,1.072-33.139,5.336-55.097,13.471c-20.596,7.628-21.004,3.271-39.082,12.077
						C722.8,486.729,720.523,487.97,715.969,490.462z"/>
					<path style="fill:#49A9DF;" d="M1265.382,334.504c-10.293,4.08-24.282-12.62-38.352-12.651
						c-2.708-0.007-4.772,8.183-10.156,9.274c-5.626,1.141-14.781,0.109-21.958-1.549c2.765,5.305,3.278,13.69,6.579,18.844
						c-5.84-2.052-13.458-0.119-19.33-1.985c1.532,20.454,7.48,24.332,23.646,33.67c18.064,10.429,24.467,4.57,33.959,26.547
						c3.42,7.912-0.194,16.683,3.828,24.688c3.292,6.556,14.089,11.664,16.925,17.779c7.732,16.702,1.755,25.575,0.759,41.644
						c-1.214,19.588,17.129,97.49,56.277,78.16c13.605-6.719-2.073-34.234,5.322-43.731c8.928-11.458,30.354-2.405,45.852-0.218
						c3.904-25.051,31.241-11.01,55.338-5.96c1.528-5.958,0.19-14.361-3.321-21.975c-2.988-1.404-6.494-2.407-9.364-3.204
						c-1.793-12.682,33.404-7.86,3.591-36.258c23.864,2.595,25.653-5.019,18.519-25.357c-5.194-14.821-8.918-11.259-4.198-19.116
						c3.339-5.562,20.592,6.942,7.855-11.836c-10.564-5.875-22.987-6.816-34.951-15.357c-14.895-10.64-19.439-23.884-31.146-33.959
						c-22.181-19.086-45.88-12.03-66.951-18.452c6.992,21.381-7.931,13.813-19.686,6.766
						C1276.843,337.879,1273.029,336.726,1265.382,334.504z"/>
					<path style="fill:#49A9DF;" d="M1725.365,841.087c-17.219-0.83-53.612,4.9-57.089-23.357
						c-8.666-4.966-16.911-5.372-22.323-0.415c1.95-0.735,2.927-1.101,4.862-1.826c-29.918,24.605-92.31-24.994-106.066,21.692
						c-1.115,3.783-3.212,23.092-4.796,25.084c-8.126,10.256-14.013,3.501-24.254,10.227c-13.263,8.706-23.523,28.015-26.061,44.314
						c-2.301,14.8-2.742,50.448,3.131,65.371c6.247,15.882,29.571,27.655,38.94,41.141c12.822,18.453,10.574,26.877,42.92,16.536
						c21.73-6.944,37.047-21.128,57.26-12.29c15.991,6.983,11.698,22.361,38.651,10.772c7.006,15.972-13.994,32.944-7.675,48.949
						c3.14,7.945,12.366,7.466,12.181,17.423c-0.171,9.596-8.595,17.703-11.413,27.005c-6.727,22.205,3.643,25.297,6.684,38.959
						c2.604,11.683-9.198,29.538-5.104,38.494c0.451,1.001,1.134,1.717,1.94,2.258
						C1718.212,1088.618,1735.753,973.672,1725.365,841.087z"/>
					<path style="fill:#49A9DF;" d="M1549.052,798.03c27.46,12.53,22.779-23.096,33.77-29.794
						c13.756-8.389,48.498,13.216,39.115-13.474c36.07-2.645,33.266,41.273,58.773,45.803c-2.476-22.278-8.363-27.984-24.965-47.231
						c25.601,8.588,43.996,42.434,60.011,53.142c1.703,0.375,3.178,0.47,4.449,0.344c-18.771-84.867-44.988-163.619-91.28-237.896
						c-2.03-1.203-3.847-2.189-5.332-2.849c-9.573-4.267-26.787-7.091-31.663-3.845c-7.581,5.05,1.707,23.746-2.476,34.315
						c-3.804,9.603-18.694,10.974-8.5,30.99c9.335,18.355,5.469,5.697,18.59,17.243c3.182,2.803,2.756-10.903,7.362-6.608
						c5.825,5.427,11.982,18.144,20.146,22.013c12.305,5.827,3.752-7.858,2.04-14.506c-4.725-18.329,1.75-11.773,5.484-22.544
						c2.144-6.167-1.727-12.791,9.127-10.476c11.726,12.957,7.959,20.978,15.322,32.624c3.031,4.798,10.644,5.887,15.573,14.333
						c4.711,8.081,3.548,12.829,0.394,16.925c-13.045,16.93-48.119-16.145-70.266-15.925c-5.84,15.22-7.718,33.689-25.288,43.029
						c-12.456,6.622-25.596-3.076-14.658,18.863c6.783,13.617,25.848,9.853,22.892,28.749c-14.174,8.342-41.245-4.981-51.24,1.399
						C1526.657,758.886,1537.776,792.888,1549.052,798.03z"/>
				</g>
			</g>
		</g>
		<g>
			
				<path style="fill:none;stroke:#FFFFFF;stroke-width:10.7864;stroke-linecap:round;stroke-linejoin:round;stroke-miterlimit:10;stroke-dasharray:21.5729;" d="
				M843.528,713.685c0,0,241.029,141.519,507.172-61.13c0,0,60.224,316.393,282.896,319.291"/>
			<g>
				<path style="fill:#EF4132;" d="M910.545,585.44c0-37.007-30.008-67.008-67.007-67.008c-37.009,0-67.007,30.001-67.007,67.008
					c0,11.202,2.761,21.754,7.623,31.032h-0.005l0.038,0.074c0.83,1.57,1.712,3.102,2.656,4.597l56.686,92.542l56.571-92.338
					C906.703,610.965,910.545,598.656,910.545,585.44z"/>
				<path style="fill:#8C1D11;" d="M885.68,533.361c10.55,11.84,21.137,30.354,21.493,49.193
					c0.251,13.213-4.843,25.933-13.097,43.418l-50.547,87.713l0,0l56.571-92.338c6.603-10.382,10.445-22.691,10.445-35.906
					C910.545,564.407,900.84,545.644,885.68,533.361z"/>
				<path style="fill:#FFFFFF;" d="M886.865,583.7c0,23.931-19.401,43.328-43.328,43.328c-23.931,0-43.328-19.397-43.328-43.328
					c0-23.929,19.396-43.328,43.328-43.328C867.464,540.372,886.865,559.771,886.865,583.7z"/>
				<path style="fill:#C7C8CA;" d="M863.081,545.035c12.03,7.699,20.018,21.17,20.018,36.513c0,23.929-19.401,43.328-43.328,43.328
					c-7.039,0-13.675-1.688-19.553-4.663c6.736,4.307,14.733,6.814,23.319,6.814c23.927,0,43.328-19.397,43.328-43.328
					C886.865,566.807,877.188,552.181,863.081,545.035z"/>
				<path style="fill:#F16461;" d="M807.24,545.988c0.185-0.188,0.37-0.375,0.55-0.565c2.429-2.479,5.195-4.938,6.323-8.33
					c1.219-3.666-3.231-3.242-5.763-2.488c-5.764,1.72-10.474,6.855-14.221,11.316c-3.51,4.172-6.328,8.93-8.273,14.024
					c-1.826,4.76-3.852,10.78-0.882,15.493c0.332,0.519,0.721,1.027,1.266,1.321c0.541,0.294,1.257,0.332,1.741-0.048
					c0.318-0.247,0.494-0.624,0.655-0.989c3.168-7.111,6.404-14.25,10.725-20.753C801.576,551.633,804.441,548.83,807.24,545.988z"
					/>
			</g>
			<g>
				<path style="fill:#EF4132;" d="M1408.505,541.947c0-31.919-25.881-57.793-57.796-57.793c-31.915,0-57.795,25.874-57.795,57.793
					c0,9.66,2.386,18.761,6.579,26.765h-0.005l0.038,0.062c0.712,1.354,1.47,2.675,2.286,3.963l48.887,79.818l48.792-79.64
					C1405.189,563.961,1408.505,553.343,1408.505,541.947z"/>
				<path style="fill:#8C1D11;" d="M1387.064,497.027c9.089,10.213,18.224,26.182,18.528,42.429
					c0.219,11.396-4.174,22.366-11.294,37.448l-43.598,75.651l0,0l48.792-79.64c5.697-8.953,9.013-19.571,9.013-30.968
					C1408.505,523.805,1400.137,507.624,1387.064,497.027z"/>
				<path style="fill:#FFFFFF;" d="M1388.079,540.445c0,20.639-16.731,37.369-37.37,37.369c-20.639,0-37.37-16.73-37.37-37.369
					c0-20.637,16.73-37.37,37.37-37.37C1371.348,503.075,1388.079,519.808,1388.079,540.445z"/>
				<path style="fill:#C7C8CA;" d="M1367.568,507.098c10.379,6.639,17.262,18.258,17.262,31.491c0,20.639-16.73,37.37-37.369,37.37
					c-6.067,0-11.793-1.456-16.859-4.022c5.806,3.716,12.703,5.879,20.108,5.879c20.639,0,37.37-16.73,37.37-37.369
					C1388.079,525.876,1379.735,513.26,1367.568,507.098z"/>
				<path style="fill:#F16461;" d="M1319.402,507.919c0.161-0.161,0.323-0.323,0.484-0.486c2.087-2.137,4.473-4.26,5.446-7.184
					c1.053-3.162-2.789-2.796-4.971-2.144c-4.967,1.482-9.027,5.91-12.262,9.758c-3.031,3.6-5.46,7.703-7.139,12.096
					c-1.575,4.105-3.32,9.298-0.759,13.363c0.285,0.448,0.626,0.885,1.091,1.139c0.465,0.254,1.086,0.287,1.508-0.04
					c0.271-0.214,0.418-0.539,0.56-0.852c2.732-6.136,5.521-12.293,9.25-17.9C1314.516,512.788,1316.992,510.369,1319.402,507.919z"
					/>
			</g>
			<g>
				<path style="fill:#EF4132;" d="M892.017,877.698c0-21.249-17.229-38.473-38.475-38.473c-21.246,0-38.475,17.224-38.475,38.473
					c0,6.433,1.584,12.49,4.383,17.819h-0.009l0.028,0.04c0.475,0.904,0.977,1.781,1.523,2.64l32.546,53.137l32.484-53.021
					C889.806,892.353,892.017,885.286,892.017,877.698z"/>
				<path style="fill:#8C1D11;" d="M877.739,847.795c6.058,6.8,12.134,17.43,12.343,28.245c0.142,7.587-2.78,14.89-7.523,24.932
					l-29.021,50.363l0,0l32.484-53.021c3.785-5.961,5.996-13.028,5.996-20.616C892.017,865.621,886.448,854.848,877.739,847.795z"/>
				<path style="fill:#FFFFFF;" d="M878.421,876.7c0,13.74-11.137,24.88-24.88,24.88c-13.742,0-24.88-11.14-24.88-24.88
					c0-13.74,11.138-24.878,24.88-24.878C867.284,851.822,878.421,862.96,878.421,876.7z"/>
				<path style="fill:#C7C8CA;" d="M864.765,854.5c6.912,4.418,11.493,12.153,11.493,20.964c0,13.74-11.138,24.878-24.88,24.878
					c-4.037,0-7.851-0.97-11.224-2.678c3.866,2.474,8.458,3.916,13.386,3.916c13.742,0,24.88-11.14,24.88-24.88
					C878.421,866.999,872.862,858.6,864.765,854.5z"/>
				<path style="fill:#F16461;" d="M832.703,855.045c0.104-0.107,0.209-0.216,0.313-0.323c1.395-1.426,2.983-2.837,3.633-4.784
					c0.702-2.104-1.859-1.862-3.311-1.428c-3.306,0.987-6.015,3.935-8.164,6.496c-2.016,2.395-3.633,5.128-4.753,8.052
					c-1.048,2.732-2.215,6.19-0.508,8.896c0.19,0.299,0.418,0.588,0.731,0.757c0.313,0.171,0.721,0.192,1.001-0.026
					c0.18-0.142,0.28-0.358,0.374-0.567c1.817-4.084,3.677-8.183,6.157-11.916C829.449,858.287,831.095,856.677,832.703,855.045z"/>
			</g>
			<g>
				<path style="fill:#EF4132;" d="M1693.939,856.364c0-33.324-27.014-60.338-60.343-60.338c-33.319,0-60.338,27.014-60.338,60.338
					c0,10.087,2.495,19.588,6.869,27.947h-0.005l0.033,0.064c0.75,1.414,1.547,2.794,2.391,4.138l51.05,83.333l50.936-83.148
					C1690.481,879.349,1693.939,868.265,1693.939,856.364z"/>
				<path style="fill:#8C1D11;" d="M1671.554,809.469c9.497,10.661,19.026,27.332,19.349,44.298
					c0.228,11.897-4.359,23.35-11.792,39.096l-45.514,78.983l0,0l50.936-83.148c5.948-9.349,9.406-20.433,9.406-32.334
					C1693.939,837.423,1685.206,820.531,1671.554,809.469z"/>
				<path style="fill:#FFFFFF;" d="M1672.617,854.799c0,21.547-17.471,39.016-39.021,39.016c-21.546,0-39.011-17.468-39.011-39.016
					c0-21.547,17.466-39.016,39.011-39.016C1655.146,815.783,1672.617,833.251,1672.617,854.799z"/>
				<path style="fill:#C7C8CA;" d="M1651.204,819.981c10.829,6.933,18.016,19.062,18.016,32.88
					c0,21.547-17.466,39.016-39.011,39.016c-6.338,0-12.314-1.52-17.608-4.201c6.068,3.88,13.268,6.138,20.995,6.138
					c21.55,0,39.021-17.468,39.021-39.016C1672.617,839.586,1663.907,826.415,1651.204,819.981z"/>
				<path style="fill:#F16461;" d="M1600.918,820.839c0.166-0.171,0.327-0.339,0.498-0.508c2.182-2.234,4.672-4.449,5.692-7.502
					c1.096-3.302-2.912-2.92-5.19-2.239c-5.189,1.549-9.43,6.171-12.807,10.187c-3.159,3.759-5.702,8.042-7.457,12.63
					c-1.636,4.286-3.463,9.708-0.787,13.951c0.294,0.47,0.65,0.925,1.139,1.189c0.484,0.266,1.139,0.299,1.57-0.043
					c0.285-0.22,0.442-0.56,0.593-0.889c2.846-6.404,5.763-12.831,9.648-18.687C1595.814,825.922,1598.394,823.396,1600.918,820.839
					z"/>
			</g>
			
				<path style="fill:none;stroke:#FFFFFF;stroke-width:10.7864;stroke-linecap:round;stroke-linejoin:round;stroke-miterlimit:10;stroke-dasharray:21.5729;" d="
				M1350.7,652.555c0,0-44.348,335.248-497.163,298.78"/>
		</g>
	</g>
	<path style="fill:#FFFFFF;" d="M1847.929,489.967v-11.624h-9.317c-0.227-1.646-0.56-3.259-0.977-4.836l8.567-3.643l-4.549-10.697
		l-8.571,3.646c-0.716-1.191-1.495-2.344-2.329-3.451l6.589-6.586l-8.221-8.218l-6.589,6.586c-1.148-0.868-2.353-1.674-3.596-2.421
		l3.605-8.583l-10.711-4.504l-3.605,8.581c-1.528-0.398-3.083-0.711-4.672-0.934v-9.314h-11.627v9.314
		c-1.641,0.232-3.254,0.56-4.834,0.979l-3.643-8.567l-10.697,4.547l3.643,8.571c-1.186,0.719-2.338,1.499-3.448,2.332l-6.589-6.586
		l-8.216,8.218l6.589,6.586c-0.868,1.153-1.675,2.355-2.424,3.598l-8.585-3.607l-4.502,10.713l8.581,3.608
		c-0.398,1.523-0.712,3.083-0.934,4.67h-9.312v11.624h9.312c0.233,1.644,0.564,3.259,0.982,4.834l-8.567,3.643l4.544,10.697
		l8.572-3.643c0.721,1.191,1.504,2.341,2.334,3.448l-6.589,6.587l8.216,8.218l6.589-6.587c1.153,0.868,2.357,1.677,3.6,2.422
		l-3.61,8.586l10.716,4.502l3.605-8.581c1.527,0.398,3.083,0.712,4.667,0.935v9.316h11.627v-9.316c1.646-0.23,3.259-0.56,4.833-0.98
		l3.643,8.567l10.696-4.547l-3.643-8.569c1.191-0.721,2.339-1.499,3.449-2.334l6.589,6.587l8.221-8.218l-6.589-6.587
		c0.868-1.153,1.674-2.353,2.419-3.595l8.586,3.608l4.501-10.716l-8.576-3.608c0.399-1.522,0.712-3.081,0.93-4.667H1847.929z
		 M1797.742,507.701c-13.007,0-23.547-10.543-23.547-23.547c0-13.004,10.54-23.547,23.547-23.547
		c13.002,0,23.547,10.543,23.547,23.547C1821.289,497.158,1810.744,507.701,1797.742,507.701z"/>
	<path style="fill:#FFFFFF;" d="M370.401,689.659v-11.621h-9.312c-0.237-1.646-0.56-3.261-0.982-4.836l8.567-3.643l-4.549-10.697
		l-8.566,3.643c-0.721-1.19-1.499-2.341-2.334-3.449l6.584-6.589l-8.216-8.216l-6.584,6.586c-1.158-0.868-2.358-1.677-3.6-2.421
		l3.61-8.586l-10.716-4.501l-3.61,8.581c-1.518-0.399-3.083-0.712-4.668-0.935v-9.316h-11.622v9.316
		c-1.646,0.23-3.264,0.56-4.838,0.979l-3.643-8.567l-10.692,4.547l3.643,8.57c-1.195,0.721-2.343,1.499-3.453,2.333l-6.584-6.586
		l-8.216,8.216l6.584,6.589c-0.868,1.153-1.674,2.353-2.419,3.598l-8.586-3.61l-4.507,10.716l8.586,3.608
		c-0.398,1.523-0.712,3.081-0.939,4.67h-9.316v11.621h9.316c0.237,1.646,0.56,3.259,0.982,4.836l-8.567,3.643l4.549,10.697
		l8.566-3.645c0.721,1.19,1.499,2.343,2.334,3.451l-6.584,6.587l8.216,8.218l6.584-6.587c1.158,0.868,2.358,1.675,3.6,2.422
		l-3.61,8.583l10.715,4.504l3.61-8.581c1.518,0.398,3.079,0.712,4.668,0.935v9.314h11.622v-9.314c1.646-0.233,3.259-0.56,4.839-0.98
		l3.643,8.567l10.692-4.549l-3.643-8.567c1.191-0.721,2.343-1.501,3.453-2.334l6.584,6.587l8.216-8.218l-6.584-6.587
		c0.868-1.153,1.674-2.355,2.419-3.598l8.586,3.608l4.507-10.714l-8.586-3.607c0.398-1.523,0.712-3.083,0.939-4.67H370.401z
		 M320.214,707.395c-13.007,0-23.547-10.542-23.547-23.547c0-13.004,10.541-23.547,23.547-23.547
		c13.002,0,23.547,10.543,23.547,23.547C343.761,696.852,333.216,707.395,320.214,707.395z"/>
	
		<line style="fill:none;stroke:#FFFFFF;stroke-width:7.9725;stroke-miterlimit:10;stroke-dasharray:17.9283,22.4104;" x1="468.241" y1="417.084" x2="708.071" y2="417.084"/>
	
		<line style="fill:none;stroke:#FFFFFF;stroke-width:7.9725;stroke-miterlimit:10;stroke-dasharray:17.9283,22.4104;" x1="1742.931" y1="1113.033" x2="1982.755" y2="1113.033"/>
	
		<line style="fill:none;stroke:#FFFFFF;stroke-width:7.9725;stroke-miterlimit:10;" x1="1772.981" y1="676.431" x2="1992.788" y2="676.431"/>
	
		<line style="fill:none;stroke:#FFFFFF;stroke-width:7.9725;stroke-miterlimit:10;" x1="270.023" y1="825.972" x2="489.839" y2="825.972"/>
	<g>
		<g>
			<path style="fill:#FFFFFF;" d="M1919.12,1016.853c-0.303,0-0.588-0.161-0.749-0.422l-46.268-75.536
				c-0.778-1.233-1.518-2.514-2.192-3.804c-4.165-7.96-6.352-16.859-6.352-25.796c0-30.645,24.927-55.576,55.571-55.576
				s55.576,24.93,55.576,55.576c0,10.574-2.998,20.872-8.662,29.775l-46.169,75.361
				C1919.713,1016.691,1919.433,1016.853,1919.12,1016.853z M1919.13,857.474c-29.676,0-53.816,24.145-53.816,53.82
				c0,8.657,2.115,17.276,6.124,24.923c0.684,1.305,1.4,2.542,2.159,3.747l45.524,74.326l45.429-74.151
				c5.498-8.638,8.396-18.609,8.396-28.846C1972.946,881.619,1948.806,857.474,1919.13,857.474z"/>
		</g>
		<g>
			<path style="fill:#72BDE9;" d="M1954.498,909.871c0,19.534-15.834,35.368-35.368,35.368s-35.368-15.834-35.368-35.368
				c0-19.532,15.834-35.366,35.368-35.366S1954.498,890.34,1954.498,909.871z"/>
			<path style="fill:#FFFFFF;" d="M1919.13,946.117c-19.989,0-36.245-16.256-36.245-36.245c0-19.985,16.256-36.245,36.245-36.245
				c19.985,0,36.241,16.261,36.241,36.245C1955.37,929.861,1939.115,946.117,1919.13,946.117z M1919.13,875.383
				c-19.022,0-34.49,15.471-34.49,34.488c0,19.017,15.469,34.491,34.49,34.491c19.012,0,34.486-15.474,34.486-34.491
				C1953.615,890.854,1938.142,875.383,1919.13,875.383z"/>
		</g>
	</g>
	<g>
		<g>
			<g>
				<polygon style="fill:#A2DEF9;" points="515.16,1153.112 408.402,1129.322 408.402,1015.131 515.16,1038.92 				"/>
				<path style="fill:#FFFFFF;" d="M515.16,1154.506c-0.105,0-0.204-0.01-0.304-0.033l-106.758-23.789
					c-0.641-0.142-1.096-0.707-1.096-1.362v-114.192c0-0.422,0.194-0.825,0.522-1.091c0.337-0.261,0.773-0.365,1.181-0.275
					l106.759,23.794c0.64,0.142,1.091,0.707,1.091,1.362v114.192c0,0.422-0.19,0.825-0.522,1.091
					C515.786,1154.402,515.473,1154.506,515.16,1154.506z M409.796,1128.198l103.964,23.168v-111.322l-103.964-23.167V1128.198z"/>
			</g>
			<g>
				<polygon style="fill:#A2DEF9;" points="621.919,1129.322 515.16,1153.112 515.16,1038.92 621.919,1015.131 				"/>
				<path style="fill:#FFFFFF;" d="M515.16,1154.506c-0.313,0-0.626-0.104-0.878-0.304c-0.327-0.266-0.522-0.669-0.522-1.091
					V1038.92c0-0.655,0.451-1.219,1.096-1.362l106.758-23.794c0.408-0.09,0.844,0.014,1.177,0.275
					c0.332,0.266,0.522,0.669,0.522,1.091v114.192c0,0.655-0.455,1.219-1.091,1.362l-106.758,23.789
					C515.364,1154.496,515.26,1154.506,515.16,1154.506z M516.555,1040.044v111.322l103.964-23.168v-111.321L516.555,1040.044z
					 M621.919,1129.322h0.029H621.919z"/>
			</g>
			<g>
				<polygon style="fill:#A2DEF9;" points="464.755,1141.836 442.783,1136.983 442.783,1111.923 464.755,1116.481 				"/>
				<path style="fill:#FFFFFF;" d="M464.755,1143.231c-0.104,0-0.199-0.01-0.304-0.033l-21.972-4.853
					c-0.636-0.137-1.091-0.707-1.091-1.362v-25.06c0-0.423,0.19-0.821,0.512-1.087c0.332-0.266,0.768-0.365,1.167-0.285
					l21.972,4.563c0.65,0.133,1.115,0.707,1.115,1.366v25.355c0,0.422-0.194,0.825-0.527,1.086
					C465.381,1143.126,465.068,1143.231,464.755,1143.231z M444.182,1135.859l19.178,4.236v-22.475l-19.178-3.98V1135.859z"/>
			</g>
			<g>
				<g>
					<g>
						<line style="fill:#FFFFFF;" x1="527.067" y1="1123.749" x2="527.067" y2="1138.791"/>
						<rect x="526.715" y="1123.749" style="fill:#FFFFFF;" width="0.702" height="15.042"/>
					</g>
					<g>
						<line style="fill:#FFFFFF;" x1="528.845" y1="1123.464" x2="528.845" y2="1138.482"/>
						<rect x="528.499" y="1123.464" style="fill:#FFFFFF;" width="0.693" height="15.018"/>
					</g>
					<g>
						<line style="fill:#FFFFFF;" x1="530.619" y1="1123.175" x2="530.619" y2="1138.169"/>
						<rect x="530.268" y="1123.175" style="fill:#FFFFFF;" width="0.698" height="14.994"/>
					</g>
					<g>
						<line style="fill:#FFFFFF;" x1="532.389" y1="1122.89" x2="532.389" y2="1137.866"/>
						<rect x="532.038" y="1122.89" style="fill:#FFFFFF;" width="0.702" height="14.97"/>
					</g>
					<g>
						<line style="fill:#FFFFFF;" x1="534.144" y1="1122.606" x2="534.144" y2="1137.557"/>
						<rect x="533.793" y="1122.606" style="fill:#FFFFFF;" width="0.702" height="14.952"/>
					</g>
					<g>
						<line style="fill:#FFFFFF;" x1="535.904" y1="1122.321" x2="535.904" y2="1137.249"/>
						<rect x="535.557" y="1122.321" style="fill:#FFFFFF;" width="0.697" height="14.928"/>
					</g>
					<g>
						<line style="fill:#FFFFFF;" x1="537.654" y1="1122.036" x2="537.654" y2="1136.945"/>
						<rect x="537.303" y="1122.036" style="fill:#FFFFFF;" width="0.702" height="14.909"/>
					</g>
					<g>
						<line style="fill:#FFFFFF;" x1="539.4" y1="1121.756" x2="539.4" y2="1136.642"/>
						<rect x="539.053" y="1121.756" style="fill:#FFFFFF;" width="0.698" height="14.885"/>
					</g>
					<g>
						<line style="fill:#FFFFFF;" x1="541.145" y1="1121.472" x2="541.145" y2="1136.338"/>
						<rect x="540.794" y="1121.472" style="fill:#FFFFFF;" width="0.698" height="14.866"/>
					</g>
					<g>
						<line style="fill:#FFFFFF;" x1="542.881" y1="1121.192" x2="542.881" y2="1136.034"/>
						<rect x="542.531" y="1121.192" style="fill:#FFFFFF;" width="0.702" height="14.842"/>
					</g>
					<g>
						<line style="fill:#FFFFFF;" x1="544.613" y1="1120.912" x2="544.613" y2="1135.731"/>
						<rect x="544.262" y="1120.912" style="fill:#FFFFFF;" width="0.702" height="14.819"/>
					</g>
					<g>
						<line style="fill:#FFFFFF;" x1="546.335" y1="1120.632" x2="546.335" y2="1135.432"/>
						<rect x="545.989" y="1120.632" style="fill:#FFFFFF;" width="0.697" height="14.8"/>
					</g>
					<g>
						<line style="fill:#FFFFFF;" x1="548.061" y1="1120.352" x2="548.061" y2="1135.133"/>
						<rect x="547.711" y="1120.352" style="fill:#FFFFFF;" width="0.702" height="14.781"/>
					</g>
					<g>
						<line style="fill:#FFFFFF;" x1="549.778" y1="1120.077" x2="549.778" y2="1134.83"/>
						<rect x="549.428" y="1120.077" style="fill:#FFFFFF;" width="0.702" height="14.752"/>
					</g>
					<g>
						<line style="fill:#FFFFFF;" x1="551.486" y1="1119.798" x2="551.486" y2="1134.535"/>
						<rect x="551.135" y="1119.798" style="fill:#FFFFFF;" width="0.702" height="14.738"/>
					</g>
					<g>
						<line style="fill:#FFFFFF;" x1="553.194" y1="1119.522" x2="553.194" y2="1134.237"/>
						<rect x="552.843" y="1119.522" style="fill:#FFFFFF;" width="0.702" height="14.715"/>
					</g>
					<g>
						<line style="fill:#FFFFFF;" x1="554.897" y1="1119.247" x2="554.897" y2="1133.938"/>
						<rect x="554.546" y="1119.247" style="fill:#FFFFFF;" width="0.697" height="14.696"/>
					</g>
				</g>
			</g>
		</g>
		<g>
			<polygon style="fill:#A2DEF9;" points="408.402,1015.131 515.16,1038.92 621.919,1015.131 515.16,995.862 			"/>
			<path style="fill:#FFFFFF;" d="M515.16,1040.319c-0.105,0-0.204-0.009-0.304-0.033l-106.758-23.789
				c-0.655-0.142-1.11-0.731-1.096-1.395c0.014-0.664,0.498-1.229,1.153-1.347l106.758-19.268c0.161-0.029,0.332-0.029,0.493,0
				l106.759,19.268c0.655,0.118,1.138,0.683,1.148,1.347c0.014,0.664-0.441,1.253-1.091,1.395l-106.758,23.789
				C515.364,1040.31,515.265,1040.319,515.16,1040.319z M415.479,1015.278l99.681,22.209l99.681-22.209l-99.681-17.992
				L415.479,1015.278z"/>
		</g>
		<g>
			<polygon style="fill:#A2DEF9;" points="515.16,1038.92 535.904,1067.035 641.073,1042.013 621.919,1015.131 			"/>
			<path style="fill:#FFFFFF;" d="M535.904,1068.434c-0.436,0-0.859-0.208-1.124-0.569l-20.748-28.115
				c-0.28-0.38-0.351-0.878-0.18-1.319c0.161-0.446,0.541-0.773,1.005-0.873l106.758-23.794c0.55-0.119,1.115,0.095,1.442,0.555
				l19.164,26.882c0.266,0.379,0.327,0.868,0.166,1.304c-0.166,0.437-0.536,0.759-0.982,0.869l-105.179,25.022
				C536.117,1068.42,536.013,1068.434,535.904,1068.434z M517.56,1039.821l18.922,25.639l102.247-24.325l-17.418-24.438
				L517.56,1039.821z"/>
		</g>
		<g>
			<polygon style="fill:#A2DEF9;" points="515.16,1038.92 494.412,1067.035 389.238,1042.013 408.402,1015.131 			"/>
			<path style="fill:#FFFFFF;" d="M494.412,1068.434c-0.104,0-0.213-0.014-0.323-0.038l-105.174-25.022
				c-0.456-0.109-0.821-0.432-0.987-0.869c-0.161-0.436-0.095-0.925,0.171-1.304l19.164-26.882c0.327-0.46,0.897-0.674,1.442-0.555
				l106.759,23.794c0.46,0.1,0.839,0.427,1.005,0.873c0.161,0.441,0.095,0.939-0.185,1.319l-20.744,28.115
				C495.271,1068.225,494.848,1068.434,494.412,1068.434z M391.586,1041.135l102.252,24.325l18.922-25.639l-103.76-23.125
				L391.586,1041.135z"/>
		</g>
		<g>
			<polygon style="fill:#A2DEF9;" points="515.16,995.862 534.144,981.551 637.069,998.372 621.919,1015.131 			"/>
			<path style="fill:#FFFFFF;" d="M621.919,1016.53c-0.086,0-0.166-0.005-0.247-0.024l-106.758-19.268
				c-0.55-0.1-0.987-0.512-1.115-1.053c-0.128-0.541,0.071-1.105,0.517-1.442l18.993-14.307c0.304-0.232,0.683-0.327,1.063-0.266
				l102.925,16.821c0.503,0.081,0.925,0.437,1.091,0.916c0.171,0.484,0.067,1.02-0.275,1.404l-15.16,16.759
				C622.687,1016.364,622.308,1016.53,621.919,1016.53z M518.556,995.051l102.84,18.566l12.917-14.278l-99.8-16.308L518.556,995.051
				z"/>
		</g>
		<g>
			<polygon style="fill:#A2DEF9;" points="514.724,995.862 495.74,981.551 392.814,998.372 407.965,1015.131 			"/>
			<path style="fill:#FFFFFF;" d="M407.97,1016.53c-0.393,0-0.773-0.166-1.039-0.46l-15.156-16.759
				c-0.346-0.384-0.451-0.92-0.28-1.399c0.166-0.484,0.588-0.84,1.091-0.921l102.926-16.821c0.379-0.062,0.764,0.033,1.067,0.266
				l18.989,14.307c0.446,0.337,0.645,0.902,0.517,1.442c-0.128,0.541-0.564,0.953-1.11,1.053l-106.754,19.268
				C408.136,1016.525,408.05,1016.53,407.97,1016.53z M395.575,999.339l12.912,14.278l102.84-18.566l-15.953-12.02L395.575,999.339z
				"/>
		</g>
		<g>
			<g>
				<polygon style="fill:#A2DEF9;" points="531.563,981.693 531.563,928.936 498.757,928.936 498.757,981.693 482.951,981.693 
					499.056,1005.198 515.16,1028.697 531.264,1005.198 547.369,981.693 				"/>
				<path style="fill:#FFFFFF;" d="M515.16,1030.092c-0.465,0-0.892-0.223-1.153-0.607l-32.214-46.999
					c-0.294-0.427-0.323-0.982-0.081-1.442c0.242-0.46,0.716-0.745,1.238-0.745h14.406v-51.363c0-0.773,0.627-1.399,1.399-1.399
					h32.806c0.768,0,1.395,0.626,1.395,1.399v51.363h14.41c0.522,0,0.996,0.285,1.234,0.745c0.246,0.46,0.213,1.015-0.076,1.442
					l-32.213,46.999C516.052,1029.869,515.62,1030.092,515.16,1030.092z M485.608,983.093l29.553,43.128l29.552-43.128h-13.149
					c-0.778,0-1.399-0.626-1.399-1.394v-51.363h-30.013v51.363c0,0.768-0.626,1.394-1.395,1.394H485.608z"/>
			</g>
		</g>
	</g>
</g>
<g>
	<g>
		<path style="fill:#160812;" d="M524.657,754.494c2.96,13.197,10.493,25.687,21.953,32.871c7.305,4.582,16.887,6.788,24.562,2.839
			c9.317-4.8,12.371-16.299,17.419-25.487c2.12-3.854,4.743-7.49,6.1-11.676c1.214-3.764,1.348-7.782,1.466-11.738
			c0.441-14.589,0.413-30.618-8.932-41.836c-8.434-10.128-23.457-13.683-35.975-9.558
			C524.78,698.633,519.287,730.519,524.657,754.494z"/>
	</g>
	<g>
		<g>
			<path style="fill:#612400;" d="M669.534,1713.643h27.741c2.182-0.441,4.288-1.196,6.19-2.547
				c2.652-1.883,5.336-4.895,8.477-4.022c1.352,0.375,2.391,1.432,3.434,2.372c2.068,1.869,4.208,3.211,6.404,4.198h68.374
				c4.426-9.146,0.398-24.918-9.326-29.377c-2.969-1.362-6.252-1.755-9.534-1.869c-0.797-0.024-1.599-0.038-2.391-0.038
				c-4.061-0.019-8.197,0.109-12.096-1.015c-9.758-2.818-15.013-13.04-24.941-15.312c-11.479-2.623-24.372-2.856-36.089-3.766
				c-4.672-0.365-13.709-4.023-17.452-1.309c-3.624,2.628-8.396,17.827-8.638,22.323
				C669.345,1689.589,669.534,1701.817,669.534,1713.643z"/>
		</g>
		<g>
			<path style="fill:#501800;" d="M732.577,1697.198c-0.674-0.043-1.348-0.09-2.016-0.138c-10.64-0.797-21.526-2.585-30.657-8.106
				c-6.375-3.852-11.821-9.824-14.297-16.92c-1.261-3.6,0.029-16.38-7.281-11.076c-3.629,2.633-8.396,17.827-8.638,22.323
				c-0.341,6.309-0.152,18.538-0.152,30.364h27.741c2.182-0.441,4.288-1.196,6.19-2.547c2.652-1.883,5.336-4.895,8.477-4.022
				c1.352,0.375,2.391,1.432,3.434,2.372c2.068,1.869,4.208,3.211,6.404,4.198h68.374c1.205,0,5.706-22.527-5.83-20.118
				C767.347,1697.069,749.885,1698.307,732.577,1697.198z"/>
		</g>
		<g>
			<path style="fill:#450F00;" d="M669.506,1703.378c0.014,3.354,0.028,6.826,0.028,10.265h27.741
				c2.182-0.441,4.288-1.196,6.19-2.547c2.652-1.883,5.336-4.895,8.477-4.022c1.352,0.375,2.391,1.432,3.434,2.372
				c2.068,1.869,4.208,3.211,6.404,4.198h68.374c1.418-2.936,1.959-6.556,1.726-10.265H669.506z"/>
		</g>
		<g>
			<path style="fill:#501800;" d="M733.876,1683.375c-0.266,0-0.531-0.123-0.712-0.351c-0.294-0.389-0.223-0.953,0.171-1.252
				c3.482-2.661,6.442-5.882,8.814-9.573c0.265-0.408,0.816-0.531,1.233-0.266c0.408,0.266,0.531,0.816,0.266,1.233
				c-2.476,3.861-5.588,7.239-9.231,10.023C734.256,1683.313,734.066,1683.375,733.876,1683.375z"/>
		</g>
		<g>
			<path style="fill:#501800;" d="M739.474,1687.169c-0.266,0-0.531-0.123-0.712-0.351c-0.294-0.394-0.218-0.953,0.17-1.253
				c3.482-2.661,6.447-5.877,8.814-9.573c0.266-0.412,0.816-0.531,1.233-0.266c0.413,0.266,0.531,0.816,0.266,1.234
				c-2.476,3.866-5.583,7.239-9.231,10.023C739.853,1687.108,739.663,1687.169,739.474,1687.169z"/>
		</g>
		<g>
			<path style="fill:#501800;" d="M746.048,1690.253c-0.266,0-0.531-0.119-0.707-0.351c-0.299-0.389-0.223-0.949,0.166-1.252
				c3.482-2.656,6.451-5.878,8.813-9.573c0.266-0.408,0.816-0.531,1.233-0.266c0.413,0.266,0.536,0.816,0.271,1.233
				c-2.481,3.866-5.583,7.239-9.231,10.028C746.427,1690.191,746.238,1690.253,746.048,1690.253z"/>
		</g>
	</g>
	<g>
		<g>
			<path style="fill:#612400;" d="M522.337,1706.765h27.736c2.187-0.441,4.288-1.195,6.195-2.547
				c2.652-1.883,5.331-4.895,8.472-4.027c1.357,0.379,2.391,1.437,3.435,2.376c2.073,1.869,4.212,3.212,6.408,4.198h68.369
				c4.43-9.146,0.398-24.918-9.326-29.377c-2.96-1.366-6.248-1.76-9.535-1.869c-0.797-0.029-1.594-0.038-2.391-0.038
				c-4.061-0.019-8.188,0.104-12.087-1.02c-9.762-2.818-15.018-13.035-24.951-15.308c-11.479-2.623-24.368-2.856-36.084-3.766
				c-4.672-0.365-13.709-4.022-17.452-1.309c-3.624,2.628-8.396,17.826-8.643,22.318
				C522.143,1682.71,522.337,1694.939,522.337,1706.765z"/>
		</g>
		<g>
			<path style="fill:#501800;" d="M585.374,1690.319c-0.669-0.043-1.343-0.09-2.016-0.142c-10.64-0.792-21.521-2.581-30.658-8.102
				c-6.375-3.852-11.811-9.828-14.297-16.92c-1.261-3.6,0.034-16.38-7.276-11.076c-3.629,2.633-8.396,17.826-8.643,22.318
				c-0.341,6.314-0.147,18.543-0.147,30.369h27.736c2.187-0.441,4.288-1.195,6.195-2.547c2.652-1.883,5.331-4.895,8.472-4.027
				c1.357,0.379,2.391,1.437,3.435,2.376c2.073,1.869,4.212,3.212,6.408,4.198h68.369c1.205,0,5.711-22.532-5.825-20.122
				C620.145,1690.191,602.688,1691.429,585.374,1690.319z"/>
		</g>
		<g>
			<path style="fill:#450F00;" d="M522.304,1696.5c0.019,3.354,0.033,6.826,0.033,10.265h27.736
				c2.187-0.441,4.288-1.195,6.195-2.547c2.652-1.883,5.331-4.895,8.472-4.027c1.357,0.379,2.391,1.437,3.435,2.376
				c2.073,1.869,4.212,3.212,6.408,4.198h68.369c1.423-2.936,1.964-6.556,1.731-10.265H522.304z"/>
		</g>
		<g>
			<path style="fill:#501800;" d="M586.679,1676.497c-0.27,0-0.536-0.123-0.712-0.351c-0.299-0.394-0.223-0.953,0.166-1.252
				c3.482-2.661,6.451-5.882,8.814-9.573c0.266-0.413,0.816-0.531,1.233-0.271c0.417,0.271,0.536,0.821,0.266,1.238
				c-2.471,3.861-5.579,7.234-9.231,10.023C587.054,1676.435,586.869,1676.497,586.679,1676.497z"/>
		</g>
		<g>
			<path style="fill:#501800;" d="M592.276,1680.291c-0.271,0-0.536-0.123-0.707-0.351c-0.303-0.393-0.228-0.953,0.166-1.252
				c3.477-2.661,6.447-5.882,8.809-9.573c0.266-0.412,0.821-0.531,1.233-0.27c0.418,0.27,0.536,0.82,0.271,1.238
				c-2.481,3.862-5.583,7.234-9.231,10.023C592.656,1680.23,592.466,1680.291,592.276,1680.291z"/>
		</g>
		<g>
			<path style="fill:#501800;" d="M598.856,1683.375c-0.276,0-0.541-0.123-0.712-0.351c-0.303-0.389-0.228-0.953,0.166-1.252
				c3.477-2.661,6.446-5.882,8.808-9.573c0.266-0.408,0.821-0.531,1.233-0.266c0.418,0.266,0.541,0.816,0.271,1.233
				c-2.476,3.861-5.583,7.239-9.226,10.023C599.23,1683.313,599.04,1683.375,598.856,1683.375z"/>
		</g>
	</g>
	<g>
		<path style="fill:#F79976;" d="M544.186,727.885c-5.099-4.58-9.53-4.478-13.927-2.009c-10.203,5.73-6.598,20.542-1.732,29.085
			c4.193,7.35,9.506,10.519,17.238,13.239"/>
	</g>
	<g>
		<path style="fill:#F58670;" d="M542.312,737.144c-3.102-2.784-5.792-2.723-8.463-1.222c-6.204,3.482-4.013,12.483-1.053,17.675
			c2.543,4.466,5.778,6.392,10.474,8.045"/>
	</g>
	<g>
		<rect x="835.521" y="999.918" style="fill:#383839;" width="0" height="0"/>
	</g>
	<g>
		<path style="fill:#F79976;" d="M692,910.564l26.849,148.9l-54.186,17.926l-17.257-168.373l14.766-33.779l8.927,5.279
			C682.105,887.019,689.732,897.986,692,910.564z"/>
	</g>
	<g>
		<path style="fill:#F8BD37;" d="M712.682,996.92L692,910.564c-2.267-12.578-9.895-23.542-20.9-30.046l-8.927-5.279l-14.766,33.779
			l6.441,112.271C669.81,1023.959,701.212,1009.287,712.682,996.92z"/>
	</g>
	<g>
		<polygon style="fill:#F79976;" points="626.263,886.237 607.161,938.024 567.358,878.635 571.125,801.984 622.673,804.521 		"/>
	</g>
	<g>
		<path style="fill:#D88668;" d="M623.512,842.98l-0.839-38.458l-51.548-2.538l-3.766,76.651h0.019
			C580.232,860.164,601.388,845.684,623.512,842.98z"/>
	</g>
	<g>
		<path style="fill:#F79976;" d="M672.285,723.582c3.178,20.62-3.021,49.402-9.534,67.017
			c-11.944,32.311-23.633,47.996-42.061,47.996c-14.198,0-50.723-13.093-60.76-22.174c-16.346-14.79-17.618-54.762-17.618-79.277
			c0-55.82,22.594-97.025,63.227-97.025C646.168,640.119,663.415,666.211,672.285,723.582z"/>
	</g>
	<g>
		<path style="fill:#160812;" d="M631.007,788.702c-5.607-2.374-11.811-4.22-17.978-3.864c-5.408,0.31-9.923,2.922-14.696,5.175
			c-6.774,3.204-13.861,5.317-21.133,2.398c-6.617-2.654-11.712-8.296-15.725-14.003c-9.724-13.828-11.906-29.448-7.637-45.042
			c-0.351-0.002-0.712-0.123-1.044-0.42c-3.159-2.858-6.575-4.995-10.18-6.717c-0.199,3.57-0.304,7.206-0.304,10.915
			c0,24.515,1.817,70.354,18.168,85.144c10.037,9.081,45.728,21.161,59.916,21.161c17.376,0,29.055-18.804,40.306-47.479
			c-1.84,0.894-3.89,1.461-6.181,1.584C645.959,798.018,638.511,791.88,631.007,788.702z"/>
	</g>
	<g>
		<path style="fill:#F79976;" d="M684.073,897.14c-2.006-14.484-17.542-21.038-21.303-22.01
			c-13.026-3.361-26.052-6.712-39.078-10.068c0.285,7.061,6.689,28.513-15.967,28.513c-32.522,0-39.594-30.757-39.594-30.757
			s-45.211,3.79-64.641,10.063c1.675,19.558,6.959,38.518,10.265,57.824c3.302,19.264,6.461,39.116,6.665,58.688
			c0.014,1.02-0.764,1.527-1.551,1.537c2.604,38.887,11.109,170.213,7.011,170.213h151.466
			C677.347,1161.142,685.748,909.202,684.073,897.14z"/>
	</g>
	<g>
		<path style="fill:#F79976;" d="M684.073,897.14c-2.006-14.484-17.542-21.038-21.303-22.01
			c-13.026-3.361-26.052-6.712-39.078-10.068c0.285,7.061,6.689,28.513-15.967,28.513c-32.522,0-39.594-30.757-39.594-30.757
			s-50.372,4.219-67.634,11.126c-1.02,0.408-2.134,1.338-3.32,2.697c11.313,34.473,26.408,67.825,21.062,105.02
			c1.172,17.063,12.195,179.482,7.642,179.482h151.466C677.347,1161.142,685.748,909.202,684.073,897.14z"/>
	</g>
	<g>
		<path style="fill:#F8BD37;" d="M684.073,897.14c-2.006-14.484-17.542-21.038-21.303-22.01
			c-13.026-3.361-24.429-7.146-37.455-10.502c2.88,7.149,5.066,28.948-17.589,28.948c-32.522,0-39.594-30.757-39.594-30.757
			s-49.642,4.16-67.245,10.979c6.56,16.977,9.786,35.425,12.366,53.323c2.581,17.893-0.683,36.9,4.648,54.352l0.237-1.285
			l16.859,183.229h139.555C674.553,1163.414,685.748,909.202,684.073,897.14z"/>
	</g>
	<g>
		<path style="fill:#160812;" d="M609.291,736.252c-4.506-1.727-9.392-2.642-14.245-2.332c-2.424,0.147-4.824,0.572-7.101,1.307
			c-2.253,0.745-4.378,1.828-6.034,3.192l-0.133,0.107c-1.347,1.105-3.33,0.911-4.44-0.434c-1.044-1.271-0.921-3.121,0.227-4.255
			c2.372-2.319,5.085-3.927,7.903-5.135c2.827-1.181,5.778-1.954,8.775-2.386c5.991-0.878,12.143-0.266,17.954,1.437
			c2.382,0.7,3.747,3.197,3.05,5.578c-0.702,2.384-3.197,3.747-5.579,3.05c-0.114-0.034-0.228-0.071-0.337-0.112L609.291,736.252z"
			/>
	</g>
	<g>
		<path style="fill:#160812;" d="M635.661,728.44c2.566-0.375,5.147-0.712,7.803-0.671c2.637,0.01,5.294,0.244,7.921,0.818
			c5.242,1.134,10.27,3.71,14.093,7.552c1.229,1.236,1.229,3.235-0.01,4.466c-1.162,1.153-2.988,1.222-4.226,0.206l-0.057-0.048
			c-3.15-2.595-7.063-4.167-11.143-4.648c-2.045-0.247-4.141-0.233-6.228-0.04c-2.096,0.159-4.193,0.65-6.271,1.148l-0.18,0.045
			c-2.419,0.579-4.848-0.908-5.427-3.325c-0.579-2.414,0.911-4.843,3.32-5.424C635.39,728.487,635.532,728.461,635.661,728.44z"/>
	</g>
	<g>
		<path style="fill:#160812;" d="M674.952,697.932c-1.271-5.209-3.003-10.246-5.076-14.918
			c-5.227-11.807-12.31-23.128-22.029-31.761c-8.329-7.398-17.926-14.544-29.292-14.886c-9.715-0.289-21.531-3.365-29.424,4.279
			c-5.161,4.995-6.309,12.779-6.504,19.959c-0.299,10.751,1.414,22.627,9.483,29.735c10.018,8.823,25.122,6.738,38.47,7.025
			c8.254,0.178,16.479,1.475,24.382,3.846c2.656,0.797,5.351,1.755,7.419,3.598c2.096,1.859,3.368,4.459,4.468,7.032
			c3.567,8.33,4.374,17.269,7.125,25.582C678.898,725.164,678.026,710.525,674.952,697.932z"/>
	</g>
	<g>
		<path style="fill:#160812;" d="M536.027,724.46c1.854-0.034,3.686,0.387,5.36,1.418c8.292,5.118,5.593,17.587,8.287,25.911
			c2.817-9.812,7.086-18.635,12.674-27.074c3.501-5.298,10.346-6.691,15.417-10.602c5.474-4.217,11.128-8.657,14.164-14.862
			c1.869-3.809,2.628-8.069,2.96-12.297c0.749-9.604-0.707-19.626-5.745-27.838c-4.297-7.006-15.298-16.939-23.903-13.023
			c-9.43,4.293-18.936,17.311-24.495,25.686c-5.38,8.093-9.435,17.074-11.911,26.471c-1.271,4.812-2.12,9.736-2.509,14.7
			c-0.19,2.481-0.266,4.969-0.218,7.457c0.019,1.11-1.077,8.847,1.376,7.113C529.979,725.755,533.029,724.514,536.027,724.46z"/>
	</g>
	<g>
		<g>
			<path style="fill:#FFFFFF;" d="M606.73,751.735c0,5.963-3.966,10.797-8.866,10.797c-4.9,0-8.875-4.834-8.875-10.797
				c0-5.962,3.975-10.796,8.875-10.796C602.764,740.939,606.73,745.773,606.73,751.735z"/>
		</g>
		<g>
			<path style="fill:#4D2818;" d="M589.729,754.418c0-5.963,3.97-10.797,8.87-10.797c3.51,0,6.399,1.378,7.969,6.086
				c-0.778-4.992-4.373-8.768-8.704-8.768c-4.9,0-9.298,4.305-9.298,10.267c0,1.691,0.754,3.814,1.324,5.239
				C589.786,755.789,589.729,755.11,589.729,754.418z"/>
		</g>
		<g>
			<ellipse style="fill:#4D2818;" cx="599.975" cy="753.075" rx="6.518" ry="7.934"/>
		</g>
		<g>
			<path style="fill:none;" d="M588.647,751.574c-0.029-0.054-0.057-0.109-0.081-0.164"/>
		</g>
		<g>
			<path style="fill:#FFFFFF;" d="M605.525,752.689c0,1.807-0.878,3.273-1.964,3.273c-1.081,0-1.959-1.466-1.959-3.273
				c0-1.807,0.878-3.271,1.959-3.271C604.647,749.418,605.525,750.881,605.525,752.689z"/>
		</g>
	</g>
	<g>
		<g>
			<path style="fill:#FFFFFF;" d="M637.971,752.212c0,5.963,3.97,10.796,8.871,10.796c4.895,0,8.87-4.834,8.87-10.796
				c0-5.963-3.975-10.797-8.87-10.797C641.941,741.416,637.971,746.249,637.971,752.212z"/>
		</g>
		<g>
			<path style="fill:#4D2818;" d="M654.972,754.894c0-5.963-3.966-10.797-8.866-10.797c-3.51,0-6.399,1.378-7.974,6.086
				c0.783-4.993,4.383-8.769,8.709-8.769c4.895,0,9.297,4.302,9.297,10.265c0,1.691-0.759,3.816-1.328,5.242
				C654.915,756.263,654.972,755.587,654.972,754.894z"/>
		</g>
		<g>
			<path style="fill:#4D2818;" d="M654.564,753.078c0,4.383-2.917,7.936-6.518,7.936c-3.605,0-6.518-3.553-6.518-7.936
				c0-4.383,2.912-7.936,6.518-7.936C651.646,745.142,654.564,748.694,654.564,753.078z"/>
		</g>
		<g>
			<path style="fill:none;" d="M656.053,752.051c0.029-0.055,0.057-0.112,0.086-0.164"/>
		</g>
		<g>
			<path style="fill:#FFFFFF;" d="M652.771,752.689c0,1.807-0.883,3.273-1.964,3.273c-1.082,0-1.964-1.466-1.964-3.273
				c0-1.807,0.882-3.273,1.964-3.273C651.888,749.416,652.771,750.881,652.771,752.689z"/>
		</g>
	</g>
	<g>
		<path style="fill:#C87C60;" d="M621.387,750.9c0.655,3.774,1.461,7.367,2.68,10.811c1.186,3.446,2.77,6.703,4.635,9.776
			c0.949,1.568,1.94,2.925,3.116,4.499c0.171,0.242,0.356,0.524,0.517,0.88c0.166,0.349,0.289,0.814,0.294,1.17
			c0.104,0.766-0.081,1.518-0.351,2.175c-0.597,1.302-1.551,1.976-2.429,2.59c-1.803,1.141-3.69,1.739-5.578,2.192
			c-1.902,0.379-3.828,0.685-5.754,0.505c1.817-0.581,3.539-1.312,5.204-2.109c1.651-0.783,3.254-1.703,4.525-2.754
			c0.574-0.538,1.11-1.136,1.243-1.601c0.048-0.225,0.086-0.406,0.019-0.581c0-0.116-0.014-0.111-0.057-0.183
			c-0.048-0.069-0.123-0.175-0.237-0.308c-0.242-0.261-0.598-0.704-0.892-1.07c-0.313-0.379-0.626-0.759-0.911-1.16
			c-0.588-0.787-1.12-1.61-1.656-2.438c-2.044-3.353-3.515-7.054-4.278-10.88C620.68,758.606,620.609,754.648,621.387,750.9z"/>
	</g>
	<g>
		<g>
			<path style="fill:#FFFFFF;" d="M637.06,798.58l-3.61,13.808c0,0-28.305,7.436-33.475-14.985L637.06,798.58z"/>
		</g>
	</g>
	<g>
		<path style="fill:#F79976;" d="M699.955,1033.161l107.475-17.684l1.039,28.29l-82.827,34.367c0,0-41.777,13.671-54.579,9.791
			c-15.777-4.781-18.723-40.036-18.723-40.036L699.955,1033.161z"/>
	</g>
	<g>
		<path style="fill:#FBF8C8;" d="M800.945,1016.539c0.024,10.042,0.138,20.079,0.593,30.108l6.93-2.879l-1.039-28.29
			L800.945,1016.539z"/>
	</g>
	<g>
		<path style="fill:#F7B937;" d="M808.469,1043.768l11.28,0.166c7.215-1.665,14.426-3.335,21.64-5
			c5.27-1.219,10.536-2.476,15.81-3.657c7.011-1.566,9.103-3.226,8.031-11.233c-0.375-2.78-0.745-5.56-1.115-8.339
			c-0.968-7.22-2.509-9.483-8.927-9.734c-2.059-0.081-2.561,2.268-4.079-0.351c-1.432-2.457,2.751-5.014,1.945-7.604
			c-0.375-1.186-1.67-1.893-2.912-1.964c-1.252-0.071-2.467,0.356-3.634,0.778c-6.394,2.31-12.789,4.615-19.183,6.926
			c-5.17,1.864-7.082,4.886-11.043,7.855c-0.588,0.441-8.861,3.638-8.852,3.866C807.435,1015.724,808.469,1043.768,808.469,1043.768
			z"/>
	</g>
	<g>
		<path style="fill:#F8BD37;" d="M525.88,722.626c0,0,4.421-5.234,48.157-18.891c50.993-15.92,103.429,8.311,103.429,8.311
			s-3.677-41.219-22.902-64.844c-21.431-26.336-61.107-28.105-95.697-11.688C543.773,642.679,521.355,663.759,525.88,722.626z"/>
	</g>
	<g>
		<path style="fill:#F4A737;" d="M659.649,706.074c-1.072-12.179-3.183-24.242-7.073-35.897
			c-5.398-16.18-14.25-30.503-25.497-43.072c-11.479-11.842-44.485-8.875-50.405,1.85c12.67,6.921,22.323,20.537,28.309,32.842
			c5.294,10.863,9.454,24.19,9.041,36.891C631.339,699.177,647.43,702.587,659.649,706.074z"/>
	</g>
	<g>
		<g>
			<path style="fill:#F18F36;" d="M653.691,704.473c2.068,0.524,4.065,1.063,5.958,1.601c-0.01-0.068-0.019-0.138-0.019-0.208
				C657.709,705.388,655.73,704.921,653.691,704.473z"/>
		</g>
		<g>
			<path style="fill:#F18F36;" d="M618.963,698.916c0.166-12.995-4.103-26.521-9.497-37.604
				c-6.295-12.919-16.422-27.212-29.728-34.479c0.531-0.965,1.29-1.866,2.211-2.708c-2.401,1.354-4.25,2.974-5.275,4.832
				c12.67,6.921,22.323,20.537,28.309,32.842c5.294,10.863,9.454,24.19,9.041,36.891
				C615.686,698.735,617.327,698.819,618.963,698.916z"/>
		</g>
	</g>
	<g>
		<polygon style="fill:#2FA1DB;" points="525.88,1242.357 679.501,1242.357 680.24,1161.142 525.88,1161.142 		"/>
	</g>
	<g>
		<path style="fill:#2FA1DB;" d="M727.909,1649.762c1.48-1.475,2.401-3.515,2.401-5.758v-4.63c0-3.098-1.755-5.806-4.322-7.177
			l4.768-196.729h-60.917l7.58,196.141c-3.297,1.039-5.711,4.132-5.711,7.766v4.63c0,2.244,0.921,4.283,2.405,5.758
			c-2.927,0.807-5.109,3.473-5.109,6.651c0,3.804,3.112,6.921,6.921,6.921h50.173c3.804,0,6.921-3.117,6.921-6.921
			C733.018,1653.234,730.84,1650.568,727.909,1649.762z"/>
	</g>
	<g>
		<polygon style="fill:#2FA1DB;" points="730.755,1435.467 676.782,1215.574 595.611,1217.842 670.237,1445.746 		"/>
	</g>
	<g>
		<path style="fill:#20749E;" d="M679.97,1662.304c-0.721-4.701,1.655-8.956,5.322-11.812c4.43-3.443,10.085-3.249,15.212-4.639
			c-6.361-0.712-13.657-1.964-15.857-8.045c-1.499-4.127-0.09-8.818,0.858-12.874c2.111-9.032,3.961-18.073,4.843-27.318
			c3.055-31.796,1.48-63.568,2.818-95.417c0.602-14.453-0.323-24.462-0.811-38.935c-0.271-8.012-4.53-23.656-6.2-31.26
			l-16.318,3.463l7.58,196.141c-3.297,1.039-5.711,4.132-5.711,7.766v4.63c0,2.244,0.921,4.283,2.405,5.758
			c-2.927,0.807-5.109,3.473-5.109,6.651c0,3.804,3.112,6.921,6.921,6.921h4.283C680.127,1662.992,680.027,1662.655,679.97,1662.304
			z"/>
	</g>
	<g>
		<path style="fill:#20749E;" d="M647.164,1321.18c-6.048-14.567-10.037-29.728-14.53-44.812
			c-3.667-12.31-9.843-24.159-11.285-36.981c-5.175-4.81-12.333-4.369-19.173-2.676l68.06,209.035l18.656-2.509
			c-1.286-11.309-9.236-26.721-13.349-37.569C664.952,1377.676,658.624,1348.788,647.164,1321.18z"/>
	</g>
	<g>
		<path style="fill:#2FA1DB;" d="M584.786,1648.14c1.48-1.476,2.4-3.515,2.4-5.759v-4.63c0-3.634-2.41-6.727-5.711-7.765
			l16.536-427.689h-72.13l7.03,428.272c-2.571,1.376-4.326,4.084-4.326,7.182v4.63c0,2.244,0.92,4.283,2.4,5.759
			c-2.927,0.806-5.104,3.472-5.104,6.65c0,3.804,3.112,6.921,6.921,6.921h0.617h46.833h2.723c3.804,0,6.916-3.116,6.916-6.921
			C589.89,1651.612,587.713,1648.946,584.786,1648.14z"/>
	</g>
	<g>
		<rect x="525.88" y="1161.142" style="fill:#20749E;" width="18.239" height="82.315"/>
	</g>
	<g>
		<path style="fill:#20749E;" d="M530.985,1648.14c-1.48-1.476-2.4-3.515-2.4-5.759v-4.63c0-3.098,1.755-5.806,4.326-7.182
			l-7.03-428.272h18.239v425.54c-0.802-0.46-2.078-0.308-2.528,0.816c-2.372,5.925-4.573,11.755-4.013,18.225
			c0.057,0.64,0.446,1.432,1.172,1.542c9.217,1.323,19.008,0.531,28.087,2.727c-5.73,0.361-11.527-0.029-17.21,1.11
			c-1.428,0.289-1.442,2.225-0.379,2.922c8.448,5.521,17.793,5.873,27.589,5.948c2.656,0.024,5.18,0.152,7.59,0.422
			c-0.47,0.099-0.953,0.161-1.452,0.161h-50.173c-3.809,0-6.921-3.116-6.921-6.921
			C525.88,1651.612,528.058,1648.946,530.985,1648.14z"/>
	</g>
	<g>
		<polygon style="fill:#20749E;" points="596.076,1235.023 596.076,1243.457 621.644,1247.285 624.148,1228.467 		"/>
	</g>
	<g>
		<path style="fill:#BE8741;" d="M500.498,873.943c3.838,1.53,7.348,3.812,10.569,6.427c3.231,2.624,6.086,5.719,8.534,9.127
			c2.457,3.411,4.26,7.301,5.426,11.328c0.247,1.024,0.508,2.04,0.731,3.06c0.142,1.039,0.228,2.092,0.332,3.126l0.118,1.551
			l-0.081,1.561c-0.057,1.039-0.142,2.068-0.247,3.083c-0.208-1.02-0.403-2.025-0.574-3.022l-0.242-1.489l-0.418-1.456
			c-0.266-0.968-0.489-1.94-0.778-2.889c-0.37-0.93-0.693-1.864-1.039-2.79c-0.299-0.939-0.792-1.807-1.191-2.708
			c-0.437-0.887-0.792-1.805-1.338-2.635l-1.461-2.571l-1.665-2.448c-2.263-3.242-4.867-6.252-7.661-9.122
			C506.693,879.235,503.7,876.524,500.498,873.943z"/>
	</g>
	<g>
		<path style="fill:#2FA1DB;" d="M663.159,875.246c-0.128-0.038-0.28-0.088-0.389-0.117c-0.18-0.045-14.677-3.783-14.857-3.828
			c0,0,7.646,22.274,10.331,44.642c2.04,16.996,3.994,45.979,3.994,45.979l-85.464,2.471c0,0-2.329-38.285-13.847-65.475
			c-10.92-25.798-23.253-32.982-23.253-32.982c-10.46,1.067-5.721,0.256-19.913,3.066c27.294,15.49,30.833,52.893,32.185,74.41
			c1.286,20.421-7.48,56.505-32.412,65.285c-0.057,0.024-0.114,0.028-0.176,0.043c2.182,50.988,6.523,152.401,6.523,152.401
			l154.36,10.678c0,0,0.906-124.651,2.889-202.953C682.262,953.455,677.812,899.26,663.159,875.246z"/>
	</g>
	<g>
		<path style="fill:#20749E;" d="M538.925,976.314c-1.514,14.544-6.385,27.807-19.387,32.384c-0.062,0.024-0.119,0.028-0.181,0.043
			c2.182,50.988,6.523,152.401,6.523,152.401l18.239,7.466C544.12,1168.609,540.586,987.405,538.925,976.314z"/>
	</g>
	<g>
		<path style="fill:#F8BF37;" d="M625.325,627.89c11.859,10.054,18.642,29.254,17.57,44.487
			c-10.18-18.469-22.062-32.325-37.934-46.112c-0.849-0.742-1.765-1.823-1.333-2.867c0.389-0.935,1.584-1.158,2.59-1.245
			C614.3,621.442,620.467,623.771,625.325,627.89z"/>
	</g>
	<g>
		<path style="fill:#F5A837;" d="M555.148,709.923c0,0,30.71,6.072,46.136,8.05c15.431,1.978,89.264,7.91,100.298,0l-24.116-11.899
			c0,0-11.575-8.745-58.948-9.307C571.144,696.202,555.148,709.923,555.148,709.923z"/>
	</g>
	<g>
		<path style="fill:#F39A37;" d="M605.155,716.016c-0.887-0.657-1.172-2.165,0-2.758c21.242-10.746,47.777-7.483,71.315-7.789
			c-3.639-1.988-18.168-8.23-57.952-8.702c-47.374-0.564-63.369,13.156-63.369,13.156s30.71,6.072,46.136,8.05
			c2.011,0.259,5.023,0.583,8.747,0.937C608.333,718.096,606.692,717.152,605.155,716.016z"/>
	</g>
	<g>
		<g>
			<path style="fill:#074E6D;" d="M581.466,964.394c0,6.413-5.199,11.617-11.612,11.617c-6.418,0-11.622-5.204-11.622-11.617
				c0-6.418,5.204-11.617,11.622-11.617C576.267,952.777,581.466,957.976,581.466,964.394z"/>
		</g>
		<g>
			<path style="fill:#00324B;" d="M576.774,964.394c0,3.823-3.098,6.921-6.921,6.921c-3.824,0-6.926-3.098-6.926-6.921
				c0-3.823,3.102-6.921,6.926-6.921C573.677,957.473,576.774,960.57,576.774,964.394z"/>
		</g>
	</g>
	<g>
		<g>
			<circle style="fill:#074E6D;" cx="672.627" cy="961.951" r="11.617"/>
		</g>
		<g>
			<circle style="fill:#00324B;" cx="672.627" cy="961.951" r="6.921"/>
		</g>
	</g>
	<g>
		<path style="fill:#65BBE9;" d="M624.167,1053.093h-21.546c-15.559,0-28.176-12.613-28.176-28.172v-34.12h77.894v34.12
			C652.339,1040.48,639.726,1053.093,624.167,1053.093z"/>
	</g>
	<g>
		<rect x="574.445" y="990.801" style="fill:#074E6D;" width="77.894" height="13.049"/>
	</g>
	<g>
		<path style="fill:#F79976;" d="M547.53,966.813c-19.895-30.449-37.593-46.833-68.032-64.247
			c-1.935,65.689,46.648,153.525,53.413,170.483l61.391-12.95l-43.916-93.23C549.797,967.686,548.279,967.961,547.53,966.813z"/>
	</g>
	<g>
		<path style="fill:#F8BD37;" d="M552.103,965.096c-7.723-15.208-14.107-31.047-21.801-46.273
			c-7.732-15.308-17.656-29.095-27.641-42.941c-0.446-0.619-0.934-1.261-1.646-1.542c-2.865-1.134-6.779,2.104-8.894,3.529
			c-2.054,1.387-4.113,2.777-6.015,4.376c-10.64,8.951-14.349,23.153-13.96,36.578c0.361,12.746,4.118,25.112,7.595,37.28
			c7.034,24.6,16.289,48.36,26.863,71.827c23.177-2.424,49.048-13.799,65.176-26.635C564.683,989.634,558.355,977.4,552.103,965.096
			z"/>
	</g>
	<g>
		<g>
			<path style="fill:#414042;" d="M936.787,1413.609c-4.592,0-8.889-2.879-10.464-7.462l-100.677-292.117
				c-1.992-5.778,1.082-12.078,6.859-14.069c5.778-1.993,12.077,1.081,14.069,6.859l100.673,292.113
				c1.997,5.777-1.077,12.077-6.854,14.069C939.196,1413.414,937.982,1413.609,936.787,1413.609z"/>
		</g>
		<g>
			<path style="fill:#414042;" d="M944.082,1443.488L944.082,1443.488c-16.36,4.464-33.399-5.266-37.868-21.626l-14.71-53.892
				c-4.468-16.36,5.265-33.404,21.626-37.867l0,0c16.36-4.469,33.399,5.265,37.868,21.625l14.714,53.892
				C970.176,1421.981,960.447,1439.02,944.082,1443.488z"/>
		</g>
		<g>
			<path style="fill:#414042;" d="M917.584,1399.056h-21.526c-22.503,0-40.747,18.243-40.747,40.747v134.793h62.273V1399.056z"/>
		</g>
		<g>
			<path style="fill:#414042;" d="M917.584,1558.851h-74.512c-16.526,0-29.923,13.396-29.923,29.923v24.828h104.434V1558.851z"/>
		</g>
		<g>
			<g>
				<path style="fill:#414042;" d="M1040.115,1667.707c0-27.347-18.087-49.513-40.396-49.513c-0.28,0-0.555,0.043-0.839,0.052
					h-25.942v12.466c-8.335,9.07-13.609,22.261-13.609,36.995s5.275,27.925,13.609,36.995v12.518h27.299v-0.028
					C1022.303,1716.845,1040.115,1694.84,1040.115,1667.707z"/>
			</g>
			<g>
				<ellipse style="fill:#333334;" cx="975.854" cy="1667.707" rx="40.396" ry="49.513"/>
			</g>
			<g>
				<path style="fill:#5F6062;" d="M997.314,1667.707c0,14.53-9.61,26.308-21.46,26.308c-11.854,0-21.464-11.778-21.464-26.308
					s9.61-26.308,21.464-26.308C987.704,1641.399,997.314,1653.177,997.314,1667.707z"/>
			</g>
		</g>
		<g>
			<g>
				<path style="fill:#414042;" d="M1375.793,1667.707c0-27.347-18.083-49.513-40.392-49.513c-0.28,0-0.555,0.043-0.839,0.052
					h-25.947v12.466c-8.329,9.07-13.605,22.261-13.605,36.995s5.275,27.925,13.605,36.995v12.518h27.304v-0.028
					C1357.986,1716.845,1375.793,1694.84,1375.793,1667.707z"/>
			</g>
			<g>
				<ellipse style="fill:#333334;" cx="1311.532" cy="1667.707" rx="40.391" ry="49.513"/>
			</g>
			<g>
				<path style="fill:#5F6062;" d="M1332.997,1667.707c0,14.53-9.61,26.308-21.464,26.308s-21.46-11.778-21.46-26.308
					s9.606-26.308,21.46-26.308S1332.997,1653.177,1332.997,1667.707z"/>
			</g>
		</g>
		<g>
			<g>
				<path style="fill:#414042;" d="M1438.825,1667.707c0-27.347-18.087-49.513-40.396-49.513c-0.285,0-0.56,0.043-0.839,0.052
					h-25.942v12.466c-8.33,9.07-13.614,22.261-13.614,36.995s5.284,27.925,13.614,36.995v12.518h27.294v-0.028
					C1421.013,1716.845,1438.825,1694.84,1438.825,1667.707z"/>
			</g>
			<g>
				<path style="fill:#333334;" d="M1414.956,1667.707c0,27.347-18.083,49.513-40.396,49.513c-22.304,0-40.392-22.166-40.392-49.513
					s18.087-49.513,40.392-49.513C1396.874,1618.193,1414.956,1640.36,1414.956,1667.707z"/>
			</g>
			<g>
				<path style="fill:#5F6062;" d="M1396.025,1667.707c0,14.53-9.61,26.308-21.464,26.308c-11.85,0-21.46-11.778-21.46-26.308
					s9.61-26.308,21.46-26.308C1386.414,1641.399,1396.025,1653.177,1396.025,1667.707z"/>
			</g>
		</g>
		<g>
			<g>
				<path style="fill:#414042;" d="M1789.882,1667.707c0-27.347-18.087-49.513-40.391-49.513c-0.285,0-0.56,0.043-0.84,0.052
					h-25.947v12.466c-8.33,9.07-13.609,22.261-13.609,36.995s5.279,27.925,13.609,36.995v12.518h27.299v-0.028
					C1772.07,1716.845,1789.882,1694.84,1789.882,1667.707z"/>
			</g>
			<g>
				<ellipse style="fill:#333334;" cx="1725.621" cy="1667.707" rx="40.396" ry="49.513"/>
			</g>
			<g>
				<ellipse style="fill:#5F6062;" cx="1725.621" cy="1667.707" rx="21.46" ry="26.308"/>
			</g>
		</g>
		<g>
			<g>
				<path style="fill:#414042;" d="M1852.91,1667.707c0-27.347-18.083-49.513-40.396-49.513c-0.28,0-0.555,0.043-0.835,0.052
					h-25.947v12.466c-8.329,9.07-13.609,22.261-13.609,36.995s5.28,27.925,13.609,36.995v12.518h27.299v-0.028
					C1835.103,1716.845,1852.91,1694.84,1852.91,1667.707z"/>
			</g>
			<g>
				<path style="fill:#333334;" d="M1829.04,1667.707c0,27.347-18.082,49.513-40.391,49.513c-22.309,0-40.396-22.166-40.396-49.513
					s18.087-49.513,40.396-49.513C1810.958,1618.193,1829.04,1640.36,1829.04,1667.707z"/>
			</g>
			<g>
				<ellipse style="fill:#5F6062;" cx="1788.649" cy="1667.707" rx="21.46" ry="26.308"/>
			</g>
		</g>
		<g>
			<g>
				<path style="fill:#414042;" d="M977.183,1667.707c0-27.347-18.083-49.513-40.392-49.513c-0.284,0-0.564,0.043-0.839,0.052
					h-25.947v12.466c-8.33,9.07-13.609,22.261-13.609,36.995s5.28,27.925,13.609,36.995v12.518h27.304v-0.028
					C959.375,1716.845,977.183,1694.84,977.183,1667.707z"/>
			</g>
			<g>
				<path style="fill:#333334;" d="M953.313,1667.707c0,27.347-18.082,49.513-40.396,49.513c-22.304,0-40.391-22.166-40.391-49.513
					s18.087-49.513,40.391-49.513C935.231,1618.193,953.313,1640.36,953.313,1667.707z"/>
			</g>
			<g>
				<path style="fill:#5F6062;" d="M934.377,1667.707c0,14.53-9.601,26.308-21.46,26.308c-11.849,0-21.455-11.778-21.455-26.308
					s9.606-26.308,21.455-26.308C924.776,1641.399,934.377,1653.177,934.377,1667.707z"/>
			</g>
		</g>
		<g>
			<path style="fill:#FCB52E;" d="M863,1618.972l51.985-209.628c5.432-21.886,22.114-36.876,41.036-36.876h67.985
				c17.376,0,33.029,12.67,39.623,32.081l72.173,212.336L863,1618.972z"/>
		</g>
		<g>
			<path style="fill:#F7942F;" d="M899.583,1618.972l51.984-209.628c5.427-21.886,22.115-36.876,41.037-36.876h67.98
				c17.38,0,33.034,12.67,39.628,32.081l72.173,212.336L899.583,1618.972z"/>
		</g>
		<g>
			<g>
				<path style="fill:#FCB52E;" d="M965.59,1613.142l18.542-74.768c1.936-7.808,7.889-13.159,14.634-13.159h24.249
					c6.2,0,11.783,4.521,14.136,11.446l25.743,75.736L965.59,1613.142z"/>
			</g>
			<g>
				<path style="fill:#F5802F;" d="M987.789,1613.142l18.538-74.768c1.94-7.808,7.888-13.159,14.638-13.159h24.249
					c6.195,0,11.783,4.521,14.136,11.446l25.738,75.736L987.789,1613.142z"/>
			</g>
		</g>
		<g>
			<g>
				<g>
					<g>
						<g>
							<rect x="1337.318" y="1078.941" style="fill:#FBC983;" width="305.993" height="151.135"/>
						</g>
						<g>
							<rect x="1490.312" y="1078.941" style="fill:#D18F58;" width="152.999" height="151.135"/>
						</g>
						<g>
							<rect x="1395.612" y="1078.941" style="fill:#CE7651;" width="31.488" height="31.483"/>
						</g>
						<g>
							<g>
								<rect x="1499.297" y="1194.826" style="fill:#FFFFFF;" width="45.922" height="25.454"/>
							</g>
							<g>
								<g>
									<rect x="1501.792" y="1197.715" width="1.053" height="19.941"/>
								</g>
								<g>
									<rect x="1504.287" y="1197.715" width="1.048" height="19.941"/>
								</g>
								<g>
									<rect x="1506.782" y="1197.715" width="1.043" height="19.941"/>
								</g>
								<g>
									<rect x="1509.272" y="1197.715" width="1.048" height="19.941"/>
								</g>
								<g>
									<rect x="1511.763" y="1197.715" width="1.053" height="19.941"/>
								</g>
								<g>
									<rect x="1514.257" y="1197.715" width="1.049" height="19.941"/>
								</g>
								<g>
									<rect x="1516.753" y="1197.715" width="1.044" height="19.941"/>
								</g>
								<g>
									<rect x="1519.243" y="1197.715" width="1.048" height="19.941"/>
								</g>
								<g>
									<rect x="1521.734" y="1197.715" width="1.053" height="19.941"/>
								</g>
								<g>
									<rect x="1524.229" y="1197.715" width="1.053" height="19.941"/>
								</g>
								<g>
									<rect x="1526.724" y="1197.715" width="1.044" height="19.941"/>
								</g>
								<g>
									<rect x="1529.214" y="1197.715" width="1.049" height="19.941"/>
								</g>
								<g>
									<rect x="1531.704" y="1197.715" width="1.053" height="19.941"/>
								</g>
								<g>
									<rect x="1534.2" y="1197.715" width="1.048" height="19.941"/>
								</g>
								<g>
									<rect x="1536.69" y="1197.715" width="1.048" height="19.941"/>
								</g>
								<g>
									<rect x="1539.185" y="1197.715" width="1.048" height="19.941"/>
								</g>
								<g>
									<rect x="1541.676" y="1197.715" width="1.053" height="19.941"/>
								</g>
							</g>
						</g>
					</g>
					<g>
						<g>
							<rect x="1643.311" y="1078.941" style="fill:#D18F58;" width="152.994" height="151.135"/>
						</g>
						<g>
							<g>
								<rect x="1652.295" y="1194.826" style="fill:#FFFFFF;" width="45.917" height="25.454"/>
							</g>
							<g>
								<g>
									<rect x="1654.791" y="1197.715" width="1.048" height="19.941"/>
								</g>
								<g>
									<rect x="1657.285" y="1197.715" width="1.044" height="19.941"/>
								</g>
								<g>
									<rect x="1659.776" y="1197.715" width="1.049" height="19.941"/>
								</g>
								<g>
									<rect x="1662.266" y="1197.715" width="1.053" height="19.941"/>
								</g>
								<g>
									<rect x="1664.761" y="1197.715" width="1.044" height="19.941"/>
								</g>
								<g>
									<rect x="1667.256" y="1197.715" width="1.043" height="19.941"/>
								</g>
								<g>
									<rect x="1669.742" y="1197.715" width="1.053" height="19.941"/>
								</g>
								<g>
									<rect x="1672.237" y="1197.715" width="1.048" height="19.941"/>
								</g>
								<g>
									<rect x="1674.732" y="1197.715" width="1.044" height="19.941"/>
								</g>
								<g>
									<rect x="1677.222" y="1197.715" width="1.049" height="19.941"/>
								</g>
								<g>
									<rect x="1679.713" y="1197.715" width="1.053" height="19.941"/>
								</g>
								<g>
									<rect x="1682.208" y="1197.715" width="1.053" height="19.941"/>
								</g>
								<g>
									<rect x="1684.703" y="1197.715" width="1.048" height="19.941"/>
								</g>
								<g>
									<rect x="1687.199" y="1197.715" width="1.043" height="19.941"/>
								</g>
								<g>
									<rect x="1689.684" y="1197.715" width="1.053" height="19.941"/>
								</g>
								<g>
									<rect x="1692.179" y="1197.715" width="1.053" height="19.941"/>
								</g>
								<g>
									<rect x="1694.674" y="1197.715" width="1.048" height="19.941"/>
								</g>
							</g>
						</g>
					</g>
					<g>
						<g>
							<rect x="1177.323" y="1078.941" style="fill:#FBC983;" width="159.996" height="151.135"/>
						</g>
						<g>
							<rect x="1235.621" y="1078.941" style="fill:#CE7651;" width="31.488" height="31.483"/>
						</g>
					</g>
					<g>
						<rect x="1335.221" y="1078.941" style="fill:#CE7651;" width="4.198" height="151.135"/>
					</g>
					<g>
						<rect x="1641.21" y="1078.941" style="fill:#9B573A;" width="4.198" height="151.135"/>
					</g>
					<g>
						<rect x="1177.323" y="1227.974" style="fill:#9B573A;" width="618.982" height="4.203"/>
					</g>
				</g>
				<g>
					<g>
						<g>
							<rect x="1337.318" y="1231.124" style="fill:#FBC983;" width="305.993" height="151.139"/>
						</g>
						<g>
							<rect x="1490.312" y="1231.124" style="fill:#D18F58;" width="152.999" height="151.139"/>
						</g>
						<g>
							<rect x="1395.612" y="1231.124" style="fill:#CE7651;" width="31.488" height="31.488"/>
						</g>
						<g>
							<g>
								<rect x="1499.297" y="1347.014" style="fill:#FFFFFF;" width="45.922" height="25.454"/>
							</g>
							<g>
								<g>
									<rect x="1501.792" y="1349.902" width="1.053" height="19.942"/>
								</g>
								<g>
									<rect x="1504.287" y="1349.902" width="1.048" height="19.942"/>
								</g>
								<g>
									<rect x="1506.782" y="1349.902" width="1.043" height="19.942"/>
								</g>
								<g>
									<rect x="1509.272" y="1349.902" width="1.048" height="19.942"/>
								</g>
								<g>
									<rect x="1511.763" y="1349.902" width="1.053" height="19.942"/>
								</g>
								<g>
									<rect x="1514.257" y="1349.902" width="1.049" height="19.942"/>
								</g>
								<g>
									<rect x="1516.753" y="1349.902" width="1.044" height="19.942"/>
								</g>
								<g>
									<rect x="1519.243" y="1349.902" width="1.048" height="19.942"/>
								</g>
								<g>
									<rect x="1521.734" y="1349.902" width="1.053" height="19.942"/>
								</g>
								<g>
									<rect x="1524.229" y="1349.902" width="1.053" height="19.942"/>
								</g>
								<g>
									<rect x="1526.724" y="1349.902" width="1.044" height="19.942"/>
								</g>
								<g>
									<rect x="1529.214" y="1349.902" width="1.049" height="19.942"/>
								</g>
								<g>
									<rect x="1531.704" y="1349.902" width="1.053" height="19.942"/>
								</g>
								<g>
									<rect x="1534.2" y="1349.902" width="1.048" height="19.942"/>
								</g>
								<g>
									<rect x="1536.69" y="1349.902" width="1.048" height="19.942"/>
								</g>
								<g>
									<rect x="1539.185" y="1349.902" width="1.048" height="19.942"/>
								</g>
								<g>
									<rect x="1541.676" y="1349.902" width="1.053" height="19.942"/>
								</g>
							</g>
						</g>
					</g>
					<g>
						<g>
							<rect x="1643.311" y="1231.124" style="fill:#D18F58;" width="152.994" height="151.139"/>
						</g>
						<g>
							<g>
								<rect x="1652.295" y="1347.014" style="fill:#FFFFFF;" width="45.917" height="25.454"/>
							</g>
							<g>
								<g>
									<rect x="1654.791" y="1349.902" width="1.048" height="19.942"/>
								</g>
								<g>
									<rect x="1657.285" y="1349.902" width="1.044" height="19.942"/>
								</g>
								<g>
									<rect x="1659.776" y="1349.902" width="1.049" height="19.942"/>
								</g>
								<g>
									<rect x="1662.266" y="1349.902" width="1.053" height="19.942"/>
								</g>
								<g>
									<rect x="1664.761" y="1349.902" width="1.044" height="19.942"/>
								</g>
								<g>
									<rect x="1667.256" y="1349.902" width="1.043" height="19.942"/>
								</g>
								<g>
									<rect x="1669.742" y="1349.902" width="1.053" height="19.942"/>
								</g>
								<g>
									<rect x="1672.237" y="1349.902" width="1.048" height="19.942"/>
								</g>
								<g>
									<rect x="1674.732" y="1349.902" width="1.044" height="19.942"/>
								</g>
								<g>
									<rect x="1677.222" y="1349.902" width="1.049" height="19.942"/>
								</g>
								<g>
									<rect x="1679.713" y="1349.902" width="1.053" height="19.942"/>
								</g>
								<g>
									<rect x="1682.208" y="1349.902" width="1.053" height="19.942"/>
								</g>
								<g>
									<rect x="1684.703" y="1349.902" width="1.048" height="19.942"/>
								</g>
								<g>
									<rect x="1687.199" y="1349.902" width="1.043" height="19.942"/>
								</g>
								<g>
									<rect x="1689.684" y="1349.902" width="1.053" height="19.942"/>
								</g>
								<g>
									<rect x="1692.179" y="1349.902" width="1.053" height="19.942"/>
								</g>
								<g>
									<rect x="1694.674" y="1349.902" width="1.048" height="19.942"/>
								</g>
							</g>
						</g>
					</g>
					<g>
						<g>
							<rect x="1177.323" y="1231.124" style="fill:#FBC983;" width="159.996" height="151.139"/>
						</g>
						<g>
							<rect x="1235.621" y="1231.124" style="fill:#CE7651;" width="31.488" height="31.488"/>
						</g>
					</g>
					<g>
						<rect x="1335.221" y="1231.124" style="fill:#CE7651;" width="4.198" height="151.139"/>
					</g>
					<g>
						<rect x="1641.21" y="1231.124" style="fill:#9B573A;" width="4.198" height="151.139"/>
					</g>
					<g>
						<rect x="1177.323" y="1380.162" style="fill:#9B573A;" width="618.982" height="4.198"/>
					</g>
				</g>
				<g>
					<g>
						<g>
							<rect x="1337.318" y="1383.312" style="fill:#FBC983;" width="305.993" height="151.134"/>
						</g>
						<g>
							<rect x="1490.312" y="1383.312" style="fill:#D18F58;" width="152.999" height="151.134"/>
						</g>
						<g>
							<rect x="1395.612" y="1383.312" style="fill:#CE7651;" width="31.488" height="31.488"/>
						</g>
						<g>
							<g>
								<rect x="1499.297" y="1499.202" style="fill:#FFFFFF;" width="45.922" height="25.449"/>
							</g>
							<g>
								<g>
									<rect x="1501.792" y="1502.085" width="1.053" height="19.942"/>
								</g>
								<g>
									<rect x="1504.287" y="1502.085" width="1.048" height="19.942"/>
								</g>
								<g>
									<rect x="1506.782" y="1502.085" width="1.043" height="19.942"/>
								</g>
								<g>
									<rect x="1509.272" y="1502.085" width="1.048" height="19.942"/>
								</g>
								<g>
									<rect x="1511.763" y="1502.085" width="1.053" height="19.942"/>
								</g>
								<g>
									<rect x="1514.257" y="1502.085" width="1.049" height="19.942"/>
								</g>
								<g>
									<rect x="1516.753" y="1502.085" width="1.044" height="19.942"/>
								</g>
								<g>
									<rect x="1519.243" y="1502.085" width="1.048" height="19.942"/>
								</g>
								<g>
									<rect x="1521.734" y="1502.085" width="1.053" height="19.942"/>
								</g>
								<g>
									<rect x="1524.229" y="1502.085" width="1.053" height="19.942"/>
								</g>
								<g>
									<rect x="1526.724" y="1502.085" width="1.044" height="19.942"/>
								</g>
								<g>
									<rect x="1529.214" y="1502.085" width="1.049" height="19.942"/>
								</g>
								<g>
									<rect x="1531.704" y="1502.085" width="1.053" height="19.942"/>
								</g>
								<g>
									<rect x="1534.2" y="1502.085" width="1.048" height="19.942"/>
								</g>
								<g>
									<rect x="1536.69" y="1502.085" width="1.048" height="19.942"/>
								</g>
								<g>
									<rect x="1539.185" y="1502.085" width="1.048" height="19.942"/>
								</g>
								<g>
									<rect x="1541.676" y="1502.085" width="1.053" height="19.942"/>
								</g>
							</g>
						</g>
					</g>
					<g>
						<g>
							<rect x="1643.311" y="1383.312" style="fill:#D18F58;" width="152.994" height="151.134"/>
						</g>
						<g>
							<g>
								<rect x="1652.295" y="1499.202" style="fill:#FFFFFF;" width="45.917" height="25.449"/>
							</g>
							<g>
								<g>
									<rect x="1654.791" y="1502.085" width="1.048" height="19.942"/>
								</g>
								<g>
									<rect x="1657.285" y="1502.085" width="1.044" height="19.942"/>
								</g>
								<g>
									<rect x="1659.776" y="1502.085" width="1.049" height="19.942"/>
								</g>
								<g>
									<rect x="1662.266" y="1502.085" width="1.053" height="19.942"/>
								</g>
								<g>
									<rect x="1664.761" y="1502.085" width="1.044" height="19.942"/>
								</g>
								<g>
									<rect x="1667.256" y="1502.085" width="1.043" height="19.942"/>
								</g>
								<g>
									<rect x="1669.742" y="1502.085" width="1.053" height="19.942"/>
								</g>
								<g>
									<rect x="1672.237" y="1502.085" width="1.048" height="19.942"/>
								</g>
								<g>
									<rect x="1674.732" y="1502.085" width="1.044" height="19.942"/>
								</g>
								<g>
									<rect x="1677.222" y="1502.085" width="1.049" height="19.942"/>
								</g>
								<g>
									<rect x="1679.713" y="1502.085" width="1.053" height="19.942"/>
								</g>
								<g>
									<rect x="1682.208" y="1502.085" width="1.053" height="19.942"/>
								</g>
								<g>
									<rect x="1684.703" y="1502.085" width="1.048" height="19.942"/>
								</g>
								<g>
									<rect x="1687.199" y="1502.085" width="1.043" height="19.942"/>
								</g>
								<g>
									<rect x="1689.684" y="1502.085" width="1.053" height="19.942"/>
								</g>
								<g>
									<rect x="1692.179" y="1502.085" width="1.053" height="19.942"/>
								</g>
								<g>
									<rect x="1694.674" y="1502.085" width="1.048" height="19.942"/>
								</g>
							</g>
						</g>
					</g>
					<g>
						<g>
							<rect x="1177.323" y="1383.312" style="fill:#FBC983;" width="159.996" height="151.134"/>
						</g>
						<g>
							<rect x="1235.621" y="1383.312" style="fill:#CE7651;" width="31.488" height="31.488"/>
						</g>
					</g>
					<g>
						<rect x="1335.221" y="1383.312" style="fill:#CE7651;" width="4.198" height="151.134"/>
					</g>
					<g>
						<rect x="1641.21" y="1383.312" style="fill:#9B573A;" width="4.198" height="151.134"/>
					</g>
					<g>
						<rect x="1177.323" y="1532.349" style="fill:#9B573A;" width="618.982" height="4.198"/>
					</g>
				</g>
				<g>
					<g>
						<g>
							<rect x="1337.318" y="926.754" style="fill:#FBC983;" width="305.993" height="151.134"/>
						</g>
						<g>
							<rect x="1490.312" y="926.754" style="fill:#D18F58;" width="152.999" height="151.134"/>
						</g>
						<g>
							<rect x="1395.612" y="926.754" style="fill:#CE7651;" width="31.488" height="31.488"/>
						</g>
						<g>
							<g>
								<rect x="1499.297" y="1042.644" style="fill:#FFFFFF;" width="45.922" height="25.449"/>
							</g>
							<g>
								<g>
									<rect x="1501.792" y="1045.527" width="1.053" height="19.942"/>
								</g>
								<g>
									<rect x="1504.287" y="1045.527" width="1.048" height="19.942"/>
								</g>
								<g>
									<rect x="1506.782" y="1045.527" width="1.043" height="19.942"/>
								</g>
								<g>
									<rect x="1509.272" y="1045.527" width="1.048" height="19.942"/>
								</g>
								<g>
									<rect x="1511.763" y="1045.527" width="1.053" height="19.942"/>
								</g>
								<g>
									<rect x="1514.257" y="1045.527" width="1.049" height="19.942"/>
								</g>
								<g>
									<rect x="1516.753" y="1045.527" width="1.044" height="19.942"/>
								</g>
								<g>
									<rect x="1519.243" y="1045.527" width="1.048" height="19.942"/>
								</g>
								<g>
									<rect x="1521.734" y="1045.527" width="1.053" height="19.942"/>
								</g>
								<g>
									<rect x="1524.229" y="1045.527" width="1.053" height="19.942"/>
								</g>
								<g>
									<rect x="1526.724" y="1045.527" width="1.044" height="19.942"/>
								</g>
								<g>
									<rect x="1529.214" y="1045.527" width="1.049" height="19.942"/>
								</g>
								<g>
									<rect x="1531.704" y="1045.527" width="1.053" height="19.942"/>
								</g>
								<g>
									<rect x="1534.2" y="1045.527" width="1.048" height="19.942"/>
								</g>
								<g>
									<rect x="1536.69" y="1045.527" width="1.048" height="19.942"/>
								</g>
								<g>
									<rect x="1539.185" y="1045.527" width="1.048" height="19.942"/>
								</g>
								<g>
									<rect x="1541.676" y="1045.527" width="1.053" height="19.942"/>
								</g>
							</g>
						</g>
					</g>
					<g>
						<g>
							<rect x="1643.311" y="926.754" style="fill:#D18F58;" width="152.994" height="151.134"/>
						</g>
						<g>
							<g>
								<rect x="1652.295" y="1042.644" style="fill:#FFFFFF;" width="45.917" height="25.449"/>
							</g>
							<g>
								<g>
									<rect x="1654.791" y="1045.527" width="1.048" height="19.942"/>
								</g>
								<g>
									<rect x="1657.285" y="1045.527" width="1.044" height="19.942"/>
								</g>
								<g>
									<rect x="1659.776" y="1045.527" width="1.049" height="19.942"/>
								</g>
								<g>
									<rect x="1662.266" y="1045.527" width="1.053" height="19.942"/>
								</g>
								<g>
									<rect x="1664.761" y="1045.527" width="1.044" height="19.942"/>
								</g>
								<g>
									<rect x="1667.256" y="1045.527" width="1.043" height="19.942"/>
								</g>
								<g>
									<rect x="1669.742" y="1045.527" width="1.053" height="19.942"/>
								</g>
								<g>
									<rect x="1672.237" y="1045.527" width="1.048" height="19.942"/>
								</g>
								<g>
									<rect x="1674.732" y="1045.527" width="1.044" height="19.942"/>
								</g>
								<g>
									<rect x="1677.222" y="1045.527" width="1.049" height="19.942"/>
								</g>
								<g>
									<rect x="1679.713" y="1045.527" width="1.053" height="19.942"/>
								</g>
								<g>
									<rect x="1682.208" y="1045.527" width="1.053" height="19.942"/>
								</g>
								<g>
									<rect x="1684.703" y="1045.527" width="1.048" height="19.942"/>
								</g>
								<g>
									<rect x="1687.199" y="1045.527" width="1.043" height="19.942"/>
								</g>
								<g>
									<rect x="1689.684" y="1045.527" width="1.053" height="19.942"/>
								</g>
								<g>
									<rect x="1692.179" y="1045.527" width="1.053" height="19.942"/>
								</g>
								<g>
									<rect x="1694.674" y="1045.527" width="1.048" height="19.942"/>
								</g>
							</g>
						</g>
					</g>
					<g>
						<g>
							<rect x="1177.323" y="926.754" style="fill:#FBC983;" width="159.996" height="151.134"/>
						</g>
						<g>
							<rect x="1235.621" y="926.754" style="fill:#CE7651;" width="31.488" height="31.488"/>
						</g>
					</g>
					<g>
						<rect x="1335.221" y="926.754" style="fill:#CE7651;" width="4.198" height="151.134"/>
					</g>
					<g>
						<rect x="1641.21" y="926.754" style="fill:#9B573A;" width="4.198" height="151.134"/>
					</g>
					<g>
						<rect x="1177.323" y="1075.791" style="fill:#9B573A;" width="618.982" height="4.198"/>
					</g>
				</g>
			</g>
			<g>
				<g>
					<rect x="1559.322" y="1588.764" style="fill:#80492D;" width="281.985" height="13.903"/>
				</g>
				<g>
					<rect x="1632.79" y="1558.851" style="fill:#80492D;" width="49.94" height="43.816"/>
				</g>
				<g>
					<rect x="1789.564" y="1558.851" style="fill:#80492D;" width="49.94" height="43.816"/>
				</g>
				<g>
					<rect x="1142.297" y="1606.956" style="fill:#6A3E17;" width="362.341" height="13.296"/>
				</g>
				<g>
					<polygon style="fill:#975D2E;" points="1134.436,1536.547 1134.436,1620.252 1177.513,1620.252 1177.513,1585.961 
						1302.325,1585.961 1302.325,1620.252 1358.683,1620.252 1358.683,1585.961 1483.491,1585.961 1483.491,1620.252 
						1540.2,1620.252 1540.2,1536.547 					"/>
				</g>
				<g>
					<polygon style="fill:#6F421A;" points="1358.859,1585.088 1322.386,1585.088 1358.555,1620.252 1358.678,1620.252 
						1358.678,1585.961 1358.859,1585.961 					"/>
				</g>
				<g>
					<path style="fill:#6F421A;" d="M1177.807,1585.088h-33.774c11.574,11.304,22.447,23.286,33.442,35.164h0.038v-34.291h0.294
						V1585.088z"/>
				</g>
				<g>
					<polygon style="fill:#EDB766;" points="1099.22,1536.547 1099.22,1620.252 1142.297,1620.252 1142.297,1585.961 
						1267.109,1585.961 1267.109,1620.252 1323.472,1620.252 1323.472,1585.961 1448.275,1585.961 1448.275,1620.252 
						1504.989,1620.252 1504.989,1536.547 					"/>
				</g>
				<g>
					<path style="fill:#AD874B;" d="M1504.638,1536.547v83.705h373.043v-83.705H1504.638z M1677.749,1598.731h-105.307v-34.676
						h105.307V1598.731z M1833.585,1598.731h-105.302v-34.676h105.302V1598.731z"/>
				</g>
				<g>
					<rect x="1099.22" y="1534.446" style="fill:#AA7B39;" width="405.768" height="13.011"/>
				</g>
				<g>
					<rect x="1504.989" y="1529.494" style="fill:#ECB15B;" width="389.741" height="17.964"/>
				</g>
				<g>
					<rect x="1099.22" y="1529.494" style="fill:#EECF91;" width="73.165" height="17.964"/>
				</g>
				<g>
					<rect x="1206.277" y="1529.494" style="fill:#EECF91;" width="73.165" height="17.964"/>
				</g>
				<g>
					<rect x="1313.33" y="1529.494" style="fill:#EECF91;" width="73.165" height="17.964"/>
				</g>
				<g>
					<rect x="1431.473" y="1529.285" style="fill:#EECF91;" width="73.165" height="17.964"/>
				</g>
			</g>
		</g>
		<g>
			<rect x="786.273" y="1608.682" style="fill:#FCB52E;" width="1107.27" height="53.759"/>
		</g>
		<g>
			<rect x="1454.005" y="1608.682" style="fill:#F7942F;" width="439.538" height="53.759"/>
		</g>
		<g>
			<path style="fill:#414042;" d="M839.591,1127.994c-1.812,0-3.633-0.451-5.275-1.343l-111.113-60.343
				c-3.881-2.106-6.138-6.314-5.749-10.706c0.398-4.393,3.358-8.135,7.547-9.525l122.265-40.491
				c3.581-1.186,7.518-0.465,10.445,1.906c2.932,2.372,4.454,6.072,4.041,9.814l-11.157,100.834
				c-0.408,3.667-2.609,6.888-5.873,8.591C843.111,1127.572,841.356,1127.994,839.591,1127.994z M756.223,1059.056l74.185,40.282
				l7.447-67.316L756.223,1059.056z"/>
		</g>
	</g>
	<g>
		<g>
			<path style="fill:#F79976;" d="M580.802,1046.993l108.419,10.393l-6.229,27.622l-88.861,12.035c0,0-37.73,3.525-49.115-3.501
				c-14.027-8.657-14.013-44.485-14.013-44.485L580.802,1046.993z"/>
		</g>
		<g>
			<path style="fill:#FBF8C8;" d="M681.004,1056.599c-1.708,6.859-3.074,13.851-4.886,20.654c-0.797,3.007-1.617,6.01-2.429,9.012
				l9.302-1.257l6.229-27.622L681.004,1056.599z"/>
		</g>
		<g>
			<path style="fill:#F7B937;" d="M682.992,1085.008l18.031,0.399c7.751-1.736,15.502-3.477,23.257-5.214
				c5.996-1.342,14.952-1.347,20.17-4.449c5.626-3.339,10.089-10.474,12.495-16.36c0.787-1.926,1.428-3.966,1.337-6.044
				c-0.09-2.077-1.029-4.217-2.803-5.298c-1.916-1.172-4.345-0.921-6.575-0.631c-8.012,1.039-16.095,1.803-24.069,2.87
				c-4.611,0.612-3.942-2.652-0.422-4.345c1.727-0.835,3.591-1.338,5.398-1.993c0.408-0.147,0.669-0.351,0.726-0.787
				c-1.745-1.024-6.821-0.227-9.06-0.104c-3.188,0.176-6.451,0.579-9.401,1.864c-4.753,2.064-8.719,5.474-13.387,7.642
				c-0.806,0.375-9.672,3.724-9.795,4.307L682.992,1085.008z"/>
		</g>
	</g>
	<g>
		<path style="fill:#F7B937;" d="M858.319,1006.066c-5.474,3.154-11.276,6.655-13.918,12.395c-1.129,2.448-1.594,5.142-1.935,7.817
			c-0.171,1.319-0.304,2.709,0.19,3.947c0.455,1.134,1.395,2.007,2.386,2.723c4.184,3.002,9.928,3.705,14.71,1.793
			c1.328-0.531,2.732-2.305,3.425-3.557c0.958-1.736,1.138-3.79,1.081-5.768C864.044,1018.717,863.1,1010.757,858.319,1006.066z"/>
	</g>
</g>
</svg>
