<?xml version="1.0" encoding="utf-8"?>
<!-- Generator: Adobe Illustrator 27.5.0, SVG Export Plug-In . SVG Version: 6.00 Build 0)  -->
<svg version="1.1" id="Layer_1" xmlns="http://www.w3.org/2000/svg" xmlns:xlink="http://www.w3.org/1999/xlink" x="0px" y="0px"
	 viewBox="0 0 3000 2000" style="enable-background:new 0 0 3000 2000;" xml:space="preserve">
<rect style="fill:#FFFFFF;" width="3000" height="2000"/>
<g>
	<path style="fill-rule:evenodd;clip-rule:evenodd;fill:#EDE4F1;" d="M1571.036,312.678c168.813,0,171.068,206.876,292.938,300.767
		c161.301,124.276,219.003,164.569,202.068,377.175c-14.036,176.207-144.724,510.07-536.974,510.07
		c-392.245,0-726.939-207.666-610.147-581.094C1035.719,546.169,1178.792,312.678,1571.036,312.678z"/>
	<path style="fill-rule:evenodd;clip-rule:evenodd;fill:#38308D;" d="M1297.727,280.932
		c254.454,61.5,410.871,317.634,349.369,572.088c-61.503,254.453-317.631,410.877-572.085,349.375
		c-254.46-61.503-410.877-317.634-349.375-572.088C787.138,375.85,1043.267,219.429,1297.727,280.932z"/>
	<path style="fill-rule:evenodd;clip-rule:evenodd;fill:#D7CCE5;" d="M1293.616,297.913
		c245.079,59.233,395.735,305.925,336.499,551.002c-59.23,245.073-305.926,395.728-550.999,336.492
		c-245.079-59.23-395.734-305.922-336.498-550.995C801.853,389.335,1048.543,238.68,1293.616,297.913z"/>
	<path style="fill-rule:evenodd;clip-rule:evenodd;fill:#38308D;" d="M1467.659,505.117c3.139-2.58,3.912-4.219,7.115-6.315
		c20.454-13.363,45.61,10.651,61.631,14.071l-1.874,14.312c7.466,1.997,12.449,0.512,14.001-7.496
		c2.828-14.54-32.423-17.11-33.91-32.391c10.798-9.302,31.48,11.249,39.959,18.469c6.184,5.258,12.15,10.33,17.673,15.439
		c5.914,5.46,12.197,13.908,15.002,16.551c3.684-7.077,7.759-20.565,12.402-24.122c0.914,0.147,1.798,0.393,2.647,0.72
		c-17.884-32.704-39.597-63.274-64.683-90.995c-2.067,0.524-4.515,0.577-7.067,0.155c-9.973-1.648-11.501-8.529-24.36-7.656
		c-6.47,0.439-15.916,3.068-22.462,0.413c2.184-0.94,13.14-7.209,14.745-8.939c14.733-15.866-20.319-9.911-9.322-30.45
		c-14.03-11.664-28.798-22.553-44.24-32.608c-1.224,1.83-1.797,4.799-1.715,9.48c0.169,9.832,0.427,16.915-7.724,21.104
		c-6.705,3.443-15.043,2.348-10.048,15.082c3.689,9.413,10.663,8.734,21.994,11.161c0.726,6.88-0.919,12.426,4.532,15.842
		c6.488,4.064,10.599,5.13,12.069,11.887c-3.291,4.732-7.332,5.493-11.19,11.943c-12.157,20.29-6.746,21.206-37.81,30.511
		c4.134,6.57,22.614,6.213,23.487,20.027c0.854,13.509-14.979,11.653-25.385,13.196c-16.431,2.439-14.007,10.572-9.486,23.162
		c2.816,7.855,5.756,21.771,16.823,23.44c5.633-3.332,3.162-6.307,12.028-6.415c0.767,6.711,4.661,11.428,0.972,20.648
		c-2.448,6.128-7.952,11.061-11.372,16.249c-3.789,5.738-6.154,12.716-9.802,18.606c-9.738,15.723-24.09,28.377-22.064,58.399
		c0.463,6.913,1.757,12.584,4.146,18.586c2.424,6.087,5.51,8.801,5.803,17.591c0.516,15.787,3.971,20.073,17.937,31.436
		c18.68,15.205,18.047,42.952,36.323,40.033c16.027-2.565,7.05-19.423,35.925-10.532c12.18,3.751,11.952,0.887,16.466-9.229
		c3.391-7.583,9.545-7.949,17.017-3.648c7.483,4.31,15.447,4.131,21.707,7.92c11.91,7.206-2.073,21.906,2.132,39.292
		c2.26,9.343,8.449,28.921,12.297,34.821c5.996,9.188,15.875,20.302,2.875,35.717c-8.607,10.218-19.066,19.212-14.681,35.799
		c11.454,43.353,29.016,34.584,18.744,73.284c-3.753,14.15-0.105,32.496,7.332,38.85c2.477-0.96,3.8-1.944,5.955-2.887
		c30.344-45.262,53.346-96.552,66.896-152.611c25.385-105.034,13.614-210.337-26.831-302.14l-38.958-1.227
		c-0.533,5.083,1.985,7.027,5.452,9.873c-9.527,4.67-17.175,14.768-31.527-0.047c-17.901-18.475-16.677-2.819-32.37-6.965
		c2.354-4.614,3.765-8.781,3.882-14.329c-4.55-4.424-15.084-5.408-20.882-5.08c-12.548,0.708-39.514,8.014-47.185,18.182
		l-14.124-2.117c4.749-4.515,12.531-5.235,13.023-17.254c0.351-8.716-3.109-14.616,0.697-24.612
		C1463.537,506.64,1463.935,508.18,1467.659,505.117L1467.659,505.117z M758.586,537.344c18.896-39.637,42.928-75.829,71.083-107.93
		c8.994,2.313,18.984,6.16,29.969,5.689c15.243-0.653,43.666-6.591,51.267-13.802c-16.39,2.685-23.504,7.287-43.918-0.914
		c-1.517-2.629-2.19-6.321-3.683-9.431c-5.112,3.425-7.578,10.757-14.165,10.198c-3.52-0.299-6.213-2.108-7.782-4.62
		c4.151-4.395,8.397-8.693,12.707-12.921c9.873,0.466,22.035,3.859,29.624,3.063c35.392-3.712,24.19-16.75,31-18.744
		c10.985-0.588,9.082,10.649,7.852,19.737c12.642,4.049,32.382-0.626,40.627,10.057c3.426-15.406-0.041-42.606,21.602-35.409
		c0.386-5.575,1.868-6.327,6.131-9.387c2.928-2.103,0.586-0.038,2.576-2.155l-9.492-2.316c0.292-4.333-0.679-7.319,3.853-7.507
		c10.61-0.439,15.676,10.171,25.314,13.243c12.438,3.958,23.575-3.44,35.978-2.755c17.327,0.954,19.599,11.854,30.737,18.82
		c10.405,6.509,32.997,2.371,36.37,12.672c-10.933,6.816-26.392-8.479-25.104,6.582l9.955,4.292
		c-3.993,8.438-5.979,9.343-7.735,20.07c-17.146-2.102-27.165-11.035-43.402-14.572c4.017-6.582,7.729-6.002,9.668-15.157
		l-15.184,0.884c-0.164-0.167-0.328-0.46-0.398-0.574c-4.708-7.167-13.275-10.242-22.006-7.844
		c1.675,10.476,2.658,10.558-0.176,23.075c2.857,3.534,8.403,5.525,3.619,11.172c-3.069,3.622-7.501,4.178-11.612,6.134
		c-5.299,2.524-4.936,6.371-12.279,3.59c-4.421-1.675-8.661-5.575-9.51-8.585c-2.922,3.429-4.392,6.236-7.489,9.606
		c-8.403,9.152-18.627,16.861-16.238,30.438c8.62,3.162,40.656,5.958,51.823,7.443c38.625,5.132,17.954-18.735,17.556-22.861
		c-1.259-12.783,13.854-30.544,32.323-23.171c8.708,3.478,9.855,12.074,15.512,14.537c12.122,5.282,13.029-2.667,17.509-9.032
		c9.744,1.004,8.151,8.667,12.145,15.189c5.984,9.782,26.702,14.405,34.414,25.546c5.926,8.561,4.509,8.391,5.463,19.526
		c5.75,1.815,9.1,1.001,12.725,5.735c2.436,3.18,4.351,6.729,1.68,12.432c-5.604,1.985-18.105-0.31-25.349-3.039
		c-9.105-3.428-7.876-10.113-7.724-18.794c-6.505-0.723-12.139,0.925-17.69,1.007c-8.971,0.129-11.653-7.094-16.83-1.364
		c-6.476,7.17-12.865,17.277-19.33,24.017c8.122,2.161,13.474-5.581,25.566-2.003l-0.527,9.445l17.169,2.943
		c-2.348,6.04-7.688,10.104-11.641,11.741c-9.229,3.818-9.275,0.319-13.146-5.335c-23.581-6.699-18.709,13.626-28.225,28.948
		c-4.966,7.996-11.659,5.296-14.633,13.597c-5.118,14.288-5.545,5.056-14.44,11.858c0.393,8.16,7.179,8.414-1.581,21.382
		c-4.134,6.11-9.621,10.658-11.536,18.873c-3.18,13.632,2.401,29.428,0.246,45.66c-5.61-3.007-8.216-7.357-10.177-11.459
		c-9.077-18.938-15.359-18.674-35.128-14.092l-2.284,5.862c-29.612-3.306-46.372,7.935-52.549,39.259
		c-2.67,13.55,2.811,24.363,13.246,30.183c11.758,6.559,27.399,7.701,28.998-11.228c19.5,1.786,9.908,8.988,14.388,22.835
		c3.619,11.196,11.635,14.004,25.87,13.123c-0.925,9.103-1.739,8.435,3.18,14.019c3.514,3.991,4.421,5.943,9.51,10.221
		c18.012,15.137,13.433-0.612,27.873,5.197c3.525,5.285,0.709,7.858,10.623,8.907c6.552-27.589,2.149-28.063,51.384-18.741
		c42.495,8.048,30.467,5.973,45.136,20.366c3.958,3.879,7.337,5.267,13.416,6.988c25.145,7.121,33.049,22.94,54.651,30.345
		c16.536,5.668,56.402,5.551,64.588,20.457c2.916,5.305-7.156,22.357-8.187,32.16c-1.001,9.58,1.587,20.507,3.162,29.316
		c8.924,49.914-25.466,28.509-44.451,68.366c-5.211,10.93-10.405,15.233-16.694,24.046c-11.255,15.799-1.728,57.597-23.487,55.629
		c-2.395-3.514-2.776-15.611-12.848-12.643c-10.083,2.975-5.504,20.776-2.096,27.809c5.809,12.005,5.534,16.051-7.396,23.225
		l3.186,2.154c0.574,1.282,0.381,3.396-0.474,4.919c-2.676,4.755-14.347-0.813-25.871,4.438
		c-4.983,17.685-4.802,32.107-3.912,48.942c0.334,6.348-0.585,16.923,2.852,21.074c5.533,6.682,20.29,0.943,18.123,12.807
		c-8.924,1.786-29.032,0.744-38.401-6.307c-5.985-4.503-10.81-18.791-13.117-28.412l-11.424-65.823
		c-0.544-14.44,7.981-25.637,10.365-40.118c2.172-13.239,1.124-23.791-1.411-35.562c-4.375-20.278-8.075-45.891-12.566-65.021
		c-12.525-2.632-20.894-4.281-26.128-12.894c-1.792-2.948-3.595-7.668-5.381-11.117c-3.9-7.513-6.851-14.499-12.291-21.232
		c-2.811-3.476-5.792-5.712-8.778-9.018c-20.313-22.495,7.244-59.426,0.188-84.776c-4.726-17.005-12.163-10.446-18.598-14.033
		c-3.162-1.757-6.845-5.867-9.931-8.312c-11.138-8.81-23.769-12.054-32.593-22.439c-8.59-10.113-10.681-8.201-24.611-12.669
		c-21.092-6.767-45.558-4.992-63.71-12.977c-19.699-8.666-25.232-24.919-33.29-36.314c-3.917-5.54-29.032-32.602-35.608-33.744
		c-10.616,16.49,14.194,32.754,15.834,47.663c-25.25-6.242-18.03-24.275-23.616-44.143c-5.487-19.523-23.944-21.048-35.796-35.679
		c-9.972-12.312-8.696-36.355-8.924-52.163c-0.298-20.598-7.261-33.855-8.894-51.352l-1.546,2.167
		c-2.354,4.09-4.093,9.659-6.962,13.122C761.203,547.905,758.533,543.088,758.586,537.344L758.586,537.344z M863.596,394.518
		c5.223,0.641,7.554-2.257,12.578-2.89c4.252-0.539,12.69,3.956,20.489,4.28c13.445,0.562,6.675-2.805,14.305-8.277
		c5.112-3.665,12.467-0.524,14.979-6.781c-6.892-9.252-11.407-0.557-15.939,2.439c-10.939,7.22-9.943-7.36-17.866-3.112
		c-3.332,1.789-2.079,4.237-8.075,2.536c-2.986-0.846-4.567-1.268-5.78-1.276C873.305,385.693,868.404,390.05,863.596,394.518
		L863.596,394.518z M901.19,377.539c9.99,6.807,21.971-20.791,1.885-4.061C899.012,376.866,901.19,377.539,901.19,377.539
		L901.19,377.539z M940.142,357.908c1.282,4.392,3.121,5.343,8.198,5.039c6.91-0.41,5.645-1.265,9.592,3.124l1.862-5.832
		C950.63,356.655,944.487,350.447,940.142,357.908L940.142,357.908z M1071.339,718.856c4.772,4.251,13.925,5.583,20.062,3.03
		c7.771-3.229-1.458-3.988,13.784-9.445c0.246-0.088,0.556-0.214,0.773-0.299l1.569-0.659c-8.233-1.713-15.201-4.998-23.774-4.761
		C1074.612,706.978,1071.327,708.629,1071.339,718.856L1071.339,718.856z M1005.679,700.033c10.704,2.278,9.498-0.214,15.775-2.594
		c14.334-5.443,22.86,11.512,31.111,12.593c5.499,0.723,14.592,2.498,15.189-3.516c0.691-6.945-6.195-6.107-12.484-7.211
		c-8.25-1.449-7.63-6.166-18.188-7.021C1026.889,691.458,1009.263,691.208,1005.679,700.033L1005.679,700.033z M1302.997,396.069
		c2.852-1.862,3.607-4.717,6.921-6.471c6.893-3.642,22.925,2.785,26.896-12.599c-4.562-1.47-6.395-1.089-10.546-3.545
		c-9.247-5.472-11.255-1.001-17.579,1.631c-5.13,2.137-5.785-0.331-11.202-0.196c-5.791,0.146-15.734,3.549-10.317,9.756
		C1289.195,386.967,1299.536,394.038,1302.997,396.069L1302.997,396.069z M1375.057,443.319
		c3.337-3.871,13.931-10.537,14.458-14.501c0.796-5.982-4.374-1.224,1.974-10.912c2.688-4.111,3.297-5.847,5.252-10.371
		c12.537,5.914,17.708,31.041,42.05,40.223c-3.174,7.671-1.628,10.136-8.409,13.014c-3.982,1.692-10.195,2.641-14.698,2.093
		c-13.041-1.578-8.942-15.143-13.035-22.36c-12.321-2.907-5.698,10.098-13.673,12.142
		C1383.249,454.114,1377.224,446.499,1375.057,443.319L1375.057,443.319z M1004.719,337.477c-10.23-1.112-21.76-1.464-29.63,0.919
		c-1.733,9.228,7.296,11.386,16.191,11.741c12.309,0.489,13.339,2.834,11.928,14.177c15.975,4.898,30.994,10.81,34.59-3.455
		l-10.605-1.847c-1.265-3.895,0.281-1.303-1.792-3.938c9.521-12.71,20.524-8.359,32.44-20.788
		c4.849-5.056,7.126-12.75,12.355-17.166c6.09-5.141,11.477-1.112,17.263-10.367c-20.39-3.484-25.707,7.19-44.714,9.779
		C1024.482,319.017,1008.268,315.711,1004.719,337.477L1004.719,337.477z M1079.566,342.364c7.372,6.602,22.041-4.723,38.87,18.451
		c19.055,26.24,30.947,14.915,36.112,15.975c-0.533,12.183-0.182,20.041,4.702,27.63c2.243,3.487,13.041,16.721,17.889,20.407
		c9.914,7.53,20.647,6.213,25.384-3.083c5.013-9.826,2.653-24.884,9.826-32.584c3.139-3.373,15.014-3.63,25.361-8.347
		c8.438-3.851,15.331-7.873,24.301-11.431c6.354-2.521,22.48-4.989,25.742-9.22c4.544-5.879-5.264-19.903,1.119-30.007
		c5.2-1.218,11.483,2.591,17.637,2.67c7.074,0.088,6.617-3.256,10.786-8.795c7.039-9.357,21.877-2.395,19.183-17.658
		c-8.538-5.156-26.503,6.462-32.991,8.945c-10.072,3.859-8.514-2.141-29.144,2.155c-1.294,0.269-3.543,0.697-4.679,0.659
		c-3.894-0.129-4.064-1.075-4.608-1.487c0.217-6.763,3.906-10.207,7.115-15.222c4.169-6.532,8.819-10.06,9.34-14.144
		c1.54-12.069-19.558-2.357-29.929-4.509c-6.828-1.417-11.963-5.507-18.539-3.794c-8.209,2.138-5.885,10.133-12.531,9.935
		c-11.624-0.349-16.642-20.138-31.287-4.105c-9.451,10.341-15.453,8.5-32.241,6.505c-6.4-0.761-11.858,0.056-16.835,1.804
		l-42.495,20.565c-5.979,4.017-16.167,15.213-18.358,23.25L1079.566,342.364L1079.566,342.364z M992.609,392.802l-7.776-8.702
		l-1.33,14.136c15.84,4.125,16.098,10.564,19.119,18.902C1020.231,413.61,995.801,395.815,992.609,392.802z"/>
	<path style="fill-rule:evenodd;clip-rule:evenodd;fill:#D1C6E2;" d="M1851.846,1672.168c328.623,0,595.022,20.63,595.022,46.079
		c0,25.454-266.399,46.084-595.022,46.084c-328.622,0-595.021-20.63-595.021-46.084
		C1256.824,1692.798,1523.224,1672.168,1851.846,1672.168z"/>
	<path style="fill-rule:evenodd;clip-rule:evenodd;fill:#EDE4F1;" d="M641.132,660.34c1.148-6.453-3.162-12.619-9.615-13.764
		c-6.459-1.147-12.619,3.162-13.767,9.618c-23.312,132.301,0.275,248.437,70.754,348.371c3.777,5.334,11.167,6.604,16.507,2.828
		c5.34-3.777,6.605-11.173,2.834-16.507C641.196,896.387,618.956,786.2,641.132,660.34L641.132,660.34z M678.48,734.084
		c1.288,33.489,4.321,65.066,10.001,94.655c5.628,29.293,13.849,56.63,25.583,81.93c2.753,5.932,0.176,12.979-5.756,15.734
		c-5.932,2.755-12.982,0.172-15.734-5.756c-12.59-27.165-21.391-56.323-27.364-87.423c-5.914-30.807-9.065-63.572-10.406-98.247
		c-0.24-6.532,4.86-12.037,11.395-12.279C672.735,722.452,678.234,727.552,678.48,734.084z"/>
	<path style="fill-rule:evenodd;clip-rule:evenodd;fill:#D1C6E2;" d="M2209.876,1517.823c124.1,0,224.706,22.633,224.706,50.559
		c0,27.92-100.606,50.558-224.706,50.558c-124.106,0-224.707-22.638-224.707-50.558
		C1985.169,1540.456,2085.77,1517.823,2209.876,1517.823z"/>
	<path style="fill-rule:evenodd;clip-rule:evenodd;fill:#3F4979;" d="M2302.484,1408.655h-176.264
		c-7.91,0-14.387,6.471-14.387,14.388v40.469c0,7.911,6.477,14.388,14.387,14.388h176.264c7.916,0,14.387-6.477,14.387-14.388
		v-40.469C2316.871,1415.126,2310.4,1408.655,2302.484,1408.655z"/>
	<polygon style="fill-rule:evenodd;clip-rule:evenodd;fill:#3F4979;" points="2300.908,1477.899 2127.797,1477.899 
		2144.789,1567.375 2283.915,1567.375 	"/>
	<polygon style="fill-rule:evenodd;clip-rule:evenodd;fill:#071023;" points="2127.797,1477.899 2300.908,1477.899 
		2297.834,1494.084 2130.871,1494.084 	"/>
	<path style="fill-rule:evenodd;clip-rule:evenodd;fill:#5A53A2;" d="M2197.777,1057.928
		c-29.43,81.494-32.838,177.873-10.247,289.12c5.716,16.864,10.066,35.304,13.047,55.313c0.562,2.091,1.13,4.193,1.704,6.295h10.763
		c2.564-41.569,3.425-83.818,2.564-126.758c-1.3-65.046-6.535-131.707-15.693-200.002c-0.246-1.833,1.054-3.52,2.893-3.76
		c1.839-0.239,3.52,1.061,3.76,2.894c9.188,68.512,14.44,135.425,15.746,200.739c0.86,43.004,0.012,85.306-2.542,126.887h7.59
		c3.894-37.418,11.939-70.566,24.131-99.459C2265.253,1211.377,2247.353,1127.617,2197.777,1057.928z"/>
	<path style="fill-rule:evenodd;clip-rule:evenodd;fill:#9588C0;" d="M2370.1,1188.891c-4.532,73.19-42.179,146.445-112.916,219.765
		h-15.465c11.431-26.544,24.267-52.912,38.52-79.116c22.995-42.296,49.686-84.193,80.064-125.675
		c0.809-1.125,0.346-2.718-1.042-3.561s-3.174-0.621-3.981,0.492c-30.474,41.628-57.258,83.678-80.358,126.149
		c-14.722,27.07-27.943,54.312-39.661,81.71h-7.898C2238.832,1298.322,2286.41,1225.062,2370.1,1188.891z"/>
	<path style="fill-rule:evenodd;clip-rule:evenodd;fill:#B4A5D0;" d="M2063.53,1222.708c4.151,65.256,35.901,127.238,95.243,185.947
		h24.219c-9.656-20.208-20.261-40.188-31.82-59.944c-22.438-38.367-48.467-75.908-78.086-112.623
		c-0.79-0.989-0.339-2.594,1.014-3.578c1.347-0.983,3.086-0.972,3.877,0.018c29.711,36.833,55.84,74.514,78.372,113.033
		c12.156,20.799,23.271,41.821,33.331,63.095h11.787C2188.263,1309.126,2142.289,1247.138,2063.53,1222.708z"/>
	<path style="fill-rule:evenodd;clip-rule:evenodd;fill:#D7CCE5;" d="M879.969,1008.102c-3.689,0-6.804,3.109-6.804,6.81v575.675
		c0,3.688,3.115,6.804,6.804,6.804h977.452c3.694,0,6.805-3.115,6.805-6.804v-575.675c0-3.701-3.11-6.81-6.805-6.81H879.969z"/>
	<path style="fill-rule:evenodd;clip-rule:evenodd;fill:#FFFFFF;" d="M866.905,1083.172h1010.039v98.159H860.446v-98.159H866.905
		L866.905,1083.172z M866.905,1424.161h1010.039v98.159H860.446v-98.159H866.905L866.905,1424.161z M1864.032,1437.073H873.358
		v72.336h990.674V1437.073L1864.032,1437.073z M866.905,1253.673h1010.039v98.153H860.446v-98.153H866.905L866.905,1253.673z
		 M1864.032,1266.578H873.358v72.336h990.674V1266.578L1864.032,1266.578z M1864.032,1096.084H873.358v72.336h990.674V1096.084z"/>
	<path style="fill-rule:evenodd;clip-rule:evenodd;fill:#5A53A2;" d="M1870.484,1172.489
		c-81.159-13.176-69.565,131.765-158.449,25.413c-21.777-26.058,23.651,138.137-102.727,33.419
		c-62.299-51.618-49.996,49.159-89.095,97.164c-21.777,26.726-21.355,16.718-41.464,12.145
		c-57.802-13.164-58.188,10.212-60.208,36.949c-16.05,69.578-113.062-1.968-151.048-22.556
		c-77.77-42.132,0.158,148.477-83.262,110.872c-21.385-9.645-82.876,56.905-103.225,56.905c-91.15,0-70.005-11.887-98.897,58.464
		c-4.468,10.88-11.676,15.61-21.075,19.851h902.563c3.736,0,6.886-3.15,6.886-6.893V1172.489z"/>
	<path style="fill-rule:evenodd;clip-rule:evenodd;fill:#5A53A2;" d="M1863.599,977.872H873.797
		c-18.375,0-33.401,15.029-33.401,33.398v582.953c0,18.369,15.026,33.396,33.401,33.396h989.802
		c18.369,0,33.401-15.026,33.401-33.396v-582.953C1897,992.9,1881.968,977.872,1863.599,977.872L1863.599,977.872z
		 M879.969,1008.102h977.452c3.694,0,6.805,3.109,6.805,6.805v575.681c0,3.688-3.11,6.804-6.805,6.804H879.969
		c-3.689,0-6.804-3.115-6.804-6.804v-575.681C873.165,1011.211,876.28,1008.102,879.969,1008.102z"/>
	<path style="fill-rule:evenodd;clip-rule:evenodd;fill:#071023;" d="M2135.146,504.163c20.928-30.654-24.331-38.527-23.892-72.063
		c0.299-23.125-14.165-47.215-9.832-70.274c8.878-47.186-9.539-61.499-9.65-65.089c-1.095-35.752-22.491-36.671-43.782-48.725
		c-37.787-21.397-70.632,4.773-81.354,5.472c-54.599,3.575-24.36,27.044-48.813,48.198c-20.138,17.427-10.61,30.631-8.537,41.107
		c0.931,4.72,5.311,24.143-8.626,33.969c-20.437,14.402,0.498,52.862-11.553,56.513c-46.407,14.063-27.728,19.848-26.468,52.277
		c0.397,10.376,10.399,18.244,16.929,25.862C1959.475,486.388,2014.453,585.823,2135.146,504.163z"/>
	<path style="fill-rule:evenodd;clip-rule:evenodd;fill:#EDE4F1;" d="M2064.051,461.105c-2.359-5.495-8.672-8.918-10.798-10.646
		c-23.136,12.508-47.653,20.225-73.36,20.428c0.932,14.692,3.098,30.148,6.031,46.664
		C2028.425,484.496,2054.465,465.682,2064.051,461.105z"/>
	<path style="fill-rule:evenodd;clip-rule:evenodd;fill:#EDE4F1;" d="M1961.635,459.238c-6.26,13.196-10.499,25.528-12.713,37.005
		c6.723-12.136,14.271-19.552,30.971-25.355c-5.322-5.61-4.895-12.895-7.044-18.753
		C1966.835,455.83,1963.099,458.195,1961.635,459.238z"/>
	<path style="fill-rule:evenodd;clip-rule:evenodd;fill:#38308D;" d="M1943.447,459.355
		c-64.214,163.207-10.078,150.541,129.001,3.537c8.157,1.933,15.623,4.322,22.386,7.165c-18.059,16.698-24.805,44.618-20.242,83.757
		c2.729,30.315,5.732,59.778,9.006,88.395c-7.923,17.872-11.975,36.15-12.666,55.86c-0.604,17.227,1.364,35.544,5.545,55.644
		c6.564,31.524,18.598,67.422,34.771,110.348c-97.381,33.169-180.73,33.544-250.057,1.127
		c40.212-88.389,34.859-115.796,30.286-174.934c-4.55-95.986-63.042-65.835,34.209-227.263
		C1932.345,460.915,1938.159,459.855,1943.447,459.355z"/>
	<path style="fill-rule:evenodd;clip-rule:evenodd;fill:#9588C0;" d="M1979.893,470.888c0.932,14.692,3.098,30.148,6.031,46.664
		c42.501-33.056,68.541-51.87,78.127-56.446c2.875,0.545,5.675,1.139,8.397,1.786c-139.079,147.005-193.215,159.67-129.001-3.537
		c6.682-0.632,12.525-0.369,18.188-0.117c-6.26,13.196-10.499,25.528-12.713,37.005
		C1955.645,484.107,1963.192,476.69,1979.893,470.888z"/>
	<path style="fill-rule:evenodd;clip-rule:evenodd;fill:#9588C0;" d="M2016.274,699.591c26.438,0.076,51.114-0.922,74.017-2.989
		c-5.974-45.297-11.208-92.895-15.699-142.788c-4.563-39.14,2.184-67.06,20.242-83.757c24.062,10.098,39.356,25.929,45.892,47.493
		c14.212,45.862,12.473,216.685-2.986,232.123c-19.522,8.552-60.759,6.811-123.726-5.232
		C2018.377,731.61,2019.126,716.661,2016.274,699.591z"/>
	<path style="fill-rule:evenodd;clip-rule:evenodd;fill:#FAB688;" d="M2000.323,705.968c3.578,0.404,9.24,0.764,16.981,1.081
		c1.225,11.272,0.75,21.546-1.417,30.827c-6.739-1.241-15.289-3.03-25.659-5.367c-18.422,4.729-40.598,4.479-66.533-0.744
		c-18.035-6.933-23.516-19.643-16.448-38.132c28.207,3.291,45.089,2.231,50.646-3.177c-9.854-5.018-13.345-10.813-10.464-17.38
		C1975.155,683.233,1992.787,694.198,2000.323,705.968z"/>
	<path style="fill-rule:evenodd;clip-rule:evenodd;fill:#D0D2D3;" d="M1904.642,654.95l-197.361-29.902l42.612,85.224
		l197.735,31.026l-3.15-6.33c-6.641-0.679-13.567-1.751-20.782-3.203c-18.035-6.933-23.516-19.643-16.448-38.132
		c6.395,0.747,12.203,1.268,17.433,1.566L1904.642,654.95z"/>
	<path style="fill-rule:evenodd;clip-rule:evenodd;fill:#A6A8AB;" d="M1907.282,677.248l8.666,17.295v0.003
		c-2.77-0.255-5.668-0.559-8.701-0.914c-6.137,16.051-2.811,27.744,9.967,35.087l-162.256-25.375l-16.578-33.152
		c22.709,7.864,45.81,12.839,69.291,14.932c4.796,5.554,12.262,9.624,18.322,9.624c5.646,0,8.433-3.522,7.478-8.491
		C1857.673,686.246,1882.272,683.248,1907.282,677.248z"/>
	<path style="fill-rule:evenodd;clip-rule:evenodd;fill:#A6A8AB;" d="M1969.517,735.644l-21.889,5.654l-3.15-6.33
		C1953.343,735.882,1961.693,736.107,1969.517,735.644z"/>
	<path style="fill-rule:evenodd;clip-rule:evenodd;fill:#A6A8AB;" d="M1947.628,741.298l21.889-5.654
		c7.366-0.436,14.265-1.481,20.712-3.136c6.95,1.566,13.081,2.887,18.398,3.958l-54.64,17.913l-53.925-9.167l-150.539-25.595
		l0.369-9.346l144.542,22.679l0,0L1947.628,741.298z"/>
	<path style="fill-rule:evenodd;clip-rule:evenodd;fill:#9588C0;" d="M1856.496,647.657c7.653-7.197,14.129-15.632,19.429-25.296
		c3.109,8.698,6.881,17.93,9.967,29.75L1856.496,647.657z"/>
	<path style="fill-rule:evenodd;clip-rule:evenodd;fill:#9588C0;" d="M1925.687,462.991c-22.825,37.887-37.072,65.221-45.452,86.111
		C1871.979,484.306,1883.807,469.722,1925.687,462.991z"/>
	<path style="fill-rule:evenodd;clip-rule:evenodd;fill:#071023;" d="M2095.865,869.064c22.995,47.431,29.46,150.509,19.406,309.251
		c-126.244,17.087-217.2,15.342-272.87-5.235c4.526-144.957,14.744-245.863,30.666-302.713
		C1936.209,895.935,2010.478,895.502,2095.865,869.064z"/>
	<path style="fill-rule:evenodd;clip-rule:evenodd;fill:#FAB688;" d="M2053.253,450.46c-23.136,12.508-47.653,20.225-73.36,20.428
		c-4.685-4.936-4.918-11.173-6.371-16.592c-0.082-0.301-0.164-0.6-0.257-0.896c3.935-5.37,6.599-9.416,4.216-18.788
		c-0.035-0.143-0.076-0.287-0.111-0.427c-27.844-9.346-45.13-56.174-33.822-83.708c-0.563-9.211-1.452-18.761-2.653-28.655
		c41.248,11.969,67.153,11.314,97.357-9.934c5.294,13.749,7.929,21.575,4.778,36.089c-0.691,5.018-3.256,15.717,3.449,16.709
		c3.098-17.42,9.439-27.044,21.197-22.884c10.476,16.773,4.222,37.889-20.934,42.254c-7.402,15.263-10.588,25.698-9.557,31.31
		c-0.797,9.519,7.542,22.325,13.796,31.694C2051.783,448.252,2052.545,449.392,2053.253,450.46z"/>
	<path style="fill-rule:evenodd;clip-rule:evenodd;fill:#ED7D57;" d="M1977.229,433.631c16.853,1.897,24.506,1.786,40.1-4.427
		c-9.135,9.861-23.364,15.737-39.707,16.692C1978.499,441.785,1978.335,437.809,1977.229,433.631z"/>
	<path style="fill-rule:evenodd;clip-rule:evenodd;fill:#FAB688;" d="M1861.402,1319.725c-3.25-44.726-5.182-92.156-5.779-142.305
		c27.768,8.068,62.844,12.238,105.233,12.508c-10.178,42.957-25.619,89.932-33.659,136.303
		c42.741,115.932-16.104,211.725-7.765,287.539c-11.646,18.58-30.982,60.583-60.155,75.989c-9.721-2.518-2.431-11.384-5.675-16.419
		c15.044-15.641,24.454-40.147,28.242-73.513C1885.312,1520.518,1878.495,1427.154,1861.402,1319.725z"/>
	<path style="fill-rule:evenodd;clip-rule:evenodd;fill:#FAB688;" d="M2020.35,1303.147c-8.807-36.687-24.787-73.624-36.422-113.442
		c31.129-0.762,65.766-3.408,103.903-7.905c-0.614,37.617-1.101,76.874-1.446,117.77c59.863,105.848,19.769,229.509,35.772,282.714
		c-11.659,27.65-14.774,62.305-40.703,82.683c-9.557-0.738-4.608-10.084-8.198-14.464c8.151-18.375,12.607-41.563,13.363-69.577
		C2077.42,1501.105,2055.332,1408.509,2020.35,1303.147z"/>
	<path style="fill-rule:evenodd;clip-rule:evenodd;fill:#071023;" d="M1844.146,1669.814c20.506,1.071,1.785,16.478,15.137,19.944
		c29.185-15.412,45.347-57.456,56.987-76.019c6.131-9.768,10.575,2.658,13.597,16.565c4.819,22.152-1.259,14.411-3.987,32.106
		c-0.679,4.41,5.024,28.143,5.955,41.336c0.369,5.194-2.477,7.226-3.01,8.122c-5.335-8.983-9.925-36.646-14.785-53.545
		c-28.635,24.617-22.375,51.753-39.368,61.005c-40.732,4.356-62.762,5.434-93.697,6.09
		C1774.182,1700.012,1827.979,1708.591,1844.146,1669.814z"/>
	<path style="fill-rule:evenodd;clip-rule:evenodd;fill:#071023;" d="M2063.354,1648.499c19.786-2.477,4.72,15.437,18.1,16.467
		c25.063-19.698,32.821-62.609,40.557-82.319c4.069-10.377,10.581,0.737,16.004,13.503c8.648,20.337,1.429,13.983,2.056,31.34
		c0.158,4.333,9.937,26.028,13.233,38.472c1.3,4.896-1.048,7.32-1.394,8.269c-6.734-7.671-16.162-33.308-23.892-48.62
		c-22.86,28.395-11.922,53.246-26.468,64.975c-38.108,11.103-58.949,15.887-88.374,21.789
		C2002.051,1689.267,2054.998,1688.289,2063.354,1648.499z"/>
	<path style="fill-rule:evenodd;clip-rule:evenodd;fill:#A6A8AB;" d="M1813.38,672.91c-4.731,0-6.354,3.838-3.618,8.57
		c2.734,4.734,8.789,8.573,13.521,8.573c4.737,0,6.354-3.838,3.618-8.573C1824.166,676.748,1818.111,672.91,1813.38,672.91z"/>
	<path style="fill-rule:evenodd;clip-rule:evenodd;fill:#9588C0;" d="M658.342,1121.65c15.863-10.213,33.173-17.252,51.039-21.128
		v-23.417c0-7.466,6.107-13.579,13.574-13.579h9.632h19.74h9.633c7.466,0,13.573,6.107,13.573,13.573v23.423
		c17.866,3.87,35.175,10.909,51.044,21.128l16.542-16.549c5.288-5.281,13.919-5.281,19.201,0l6.81,6.805l13.96,13.96l6.81,6.815
		c5.282,5.282,5.282,13.914,0,19.195l-16.542,16.543c10.212,15.862,17.251,33.172,21.122,51.044h23.411
		c7.472,0,13.579,6.107,13.579,13.573v9.633v19.739v9.639c0,7.466-6.107,13.573-13.579,13.573h-23.411
		c-3.865,17.866-10.909,35.182-21.127,51.039l16.548,16.548c5.276,5.276,5.282,13.913,0,19.195l-6.81,6.815l-13.966,13.954
		l-6.804,6.811c-5.282,5.282-13.919,5.282-19.201,0l-16.542-16.542c-15.869,10.212-33.179,17.256-51.044,21.121v23.417
		c0,7.466-6.107,13.579-13.573,13.573h-9.633h-19.74h-9.632c-7.466,0-13.574-6.107-13.574-13.573v-23.417
		c-17.866-3.871-35.175-10.909-51.039-21.121l-16.548,16.542c-5.282,5.282-13.919,5.282-19.201,0l-6.81-6.811l-13.954-13.954
		l-6.81-6.815c-5.282-5.282-5.282-13.919,0-19.195l16.536-16.542c-10.218-15.863-17.256-33.179-21.121-51.045h-23.417
		c-7.466,0-13.574-6.107-13.574-13.573v-9.639v-19.739v-9.633c0-7.46,6.107-13.573,13.574-13.573h23.417
		c3.871-17.86,10.909-35.176,21.127-51.038l-16.548-16.549c-5.276-5.281-5.276-13.913,0-19.195l6.81-6.81l13.96-13.966l6.81-6.805
		c5.282-5.281,13.919-5.281,19.201,0L658.342,1121.65L658.342,1121.65z M988.698,1052.189c-7.378-0.75-14.03,4.667-14.78,12.039
		l-1.324,13.023c-8.977,2.132-17.368,5.943-24.77,11.138l-10.622-7.671c-6.014-4.334-14.481-2.969-18.82,3.045l-12.045,16.688
		c-4.339,6.014-2.969,14.481,3.039,18.82l10.617,7.659c-1.277,4.298-2.178,8.76-2.647,13.387c-0.474,4.613-0.492,9.17-0.111,13.632
		l-11.94,5.363c-6.764,3.033-9.809,11.056-6.769,17.819l8.433,18.779c3.039,6.764,11.049,9.814,17.813,6.77l11.951-5.358
		c6.201,6.57,13.65,12.004,22.018,15.904l-1.329,13.017c-0.75,7.373,4.661,14.019,12.045,14.774l20.478,2.091
		c7.373,0.749,14.024-4.674,14.774-12.052l1.329-13.011c8.977-2.132,17.368-5.95,24.77-11.138l10.617,7.665
		c6.02,4.339,14.487,2.969,18.82-3.039l12.051-16.695c4.333-6.014,2.969-14.48-3.045-18.819l-10.61-7.665
		c1.276-4.287,2.178-8.749,2.647-13.375c0.468-4.614,0.492-9.182,0.105-13.644l11.94-5.358c6.763-3.039,9.814-11.05,6.775-17.818
		l-8.432-18.773c-3.033-6.77-11.05-9.814-17.819-6.781l-11.946,5.364c-6.207-6.57-13.649-12.005-22.017-15.904l1.329-13.012
		c0.75-7.378-4.667-14.024-12.045-14.779L988.698,1052.189L988.698,1052.189z M989.313,1114.453
		c18.334,0,33.196,14.861,33.196,33.196c0,18.328-14.862,33.19-33.196,33.19c-18.334,0-33.196-14.862-33.196-33.19
		C956.116,1129.314,970.978,1114.453,989.313,1114.453L989.313,1114.453z M966.387,1262.022c-7.349,0.984-12.555,7.8-11.565,15.155
		l1.745,12.964c-8.233,4.17-15.5,9.838-21.491,16.607l-12.115-4.978c-6.857-2.822-14.774,0.48-17.59,7.343l-7.823,19.037
		c-2.817,6.857,0.486,14.774,7.343,17.591l12.11,4.971c-0.246,4.475-0.076,9.03,0.544,13.633c0.615,4.603,1.663,9.041,3.074,13.292
		l-10.365,7.993c-5.867,4.532-6.962,13.041-2.43,18.908l12.578,16.297c4.526,5.873,13.035,6.962,18.908,2.436l10.365-8.005
		c7.565,4.948,16.074,8.491,25.115,10.341l1.745,12.959c0.99,7.349,7.806,12.549,15.161,11.565l20.396-2.747
		c7.349-0.989,12.548-7.811,11.565-15.154l-1.745-12.971c8.233-4.169,15.506-9.831,21.49-16.601l12.116,4.972
		c6.857,2.822,14.774-0.48,17.59-7.343l7.823-19.037c2.817-6.857-0.486-14.774-7.343-17.591l-12.11-4.972
		c0.246-4.474,0.076-9.029-0.544-13.632c-0.615-4.603-1.657-9.041-3.074-13.292l10.364-7.993c5.868-4.532,6.963-13.041,2.431-18.908
		l-12.572-16.297c-4.532-5.867-13.041-6.962-18.908-2.43l-10.371,7.999c-7.565-4.948-16.074-8.491-25.115-10.336l-1.745-12.958
		c-0.99-7.355-7.806-12.555-15.155-11.571L966.387,1262.022L966.387,1262.022z M989.236,1321.505
		c18.334,0,33.196,14.862,33.196,33.196s-14.862,33.196-33.196,33.196c-18.329,0-33.19-14.862-33.19-33.196
		S970.908,1321.505,989.236,1321.505L989.236,1321.505z M742.454,1140.078c-31.053,0-59.166,12.596-79.52,32.943
		c-20.349,20.35-32.939,48.468-32.939,79.521c0,31.053,12.59,59.172,32.939,79.52c20.354,20.354,48.467,32.938,79.52,32.938
		c31.053,0,59.172-12.584,79.526-32.938c20.354-20.348,32.939-48.467,32.939-79.52c0-31.054-12.584-59.172-32.939-79.521
		C801.625,1152.674,773.506,1140.078,742.454,1140.078L742.454,1140.078z M800.255,1194.74
		c-14.786-14.785-35.222-23.938-57.801-23.938c-22.568,0-43.004,9.152-57.796,23.938c-14.786,14.792-23.938,35.229-23.938,57.803
		c0,22.573,9.147,43.01,23.938,57.801c14.792,14.786,35.228,23.938,57.796,23.938c22.58,0,43.016-9.146,57.801-23.938
		c14.792-14.791,23.938-35.228,23.938-57.801C824.193,1229.969,815.04,1209.532,800.255,1194.74z"/>
	<path style="fill-rule:evenodd;clip-rule:evenodd;fill:#EDE4F1;" d="M956.116,1147.649c0,18.328,14.862,33.19,33.196,33.19
		c18.334,0,33.196-14.862,33.196-33.19c0-18.335-14.862-33.196-33.196-33.196C970.978,1114.453,956.116,1129.314,956.116,1147.649z"
		/>
	<path style="fill-rule:evenodd;clip-rule:evenodd;fill:#EDE4F1;" d="M1022.432,1354.707c0-18.34-14.862-33.202-33.196-33.202
		c-18.329,0-33.19,14.862-33.19,33.202c0,18.328,14.862,33.19,33.19,33.19C1007.57,1387.897,1022.432,1373.035,1022.432,1354.707z"
		/>
	<path style="fill-rule:evenodd;clip-rule:evenodd;fill:#EDE4F1;" d="M821.979,1332.063c20.354-20.348,32.939-48.467,32.939-79.52
		c0-31.054-12.584-59.172-32.939-79.521c-20.354-20.348-48.467-32.943-79.526-32.943c-31.053,0-59.166,12.596-79.52,32.943
		c-20.349,20.35-32.939,48.468-32.939,79.521c0,31.053,12.59,59.172,32.939,79.52c20.354,20.354,48.467,32.944,79.52,32.944
		C773.512,1365.007,801.625,1352.417,821.979,1332.063L821.979,1332.063z M800.255,1194.746
		c14.792,14.786,23.938,35.223,23.938,57.797c0,22.573-9.147,43.01-23.938,57.801c-14.786,14.792-35.222,23.938-57.801,23.938
		c-22.568,0-43.004-9.152-57.796-23.938c-14.786-14.791-23.938-35.228-23.938-57.801c0-22.574,9.152-43.011,23.938-57.797
		c14.792-14.791,35.228-23.943,57.796-23.943C765.033,1170.803,785.469,1179.955,800.255,1194.746z"/>
</g>
</svg>
